ply
format ascii 1.0
element vertex 61
property float x
property float y
property float z
property float nx
property float ny
property float nz
element face 56
property list uchar int vertex_indices
end_header
152.916 72.433 160 0 0 1
111.915 94.908 160 0 0 1
126.696 66.816 160 0 0 1
107.967 14.377 160 0 0 2.75506e-40
61.149 33.105 160 2.4845e-42 2.8026e-45 -5.50961e-26
190.995 109.266 160 -2.16707e-22 -1.91683e-22 -5.6673e-26
202.854 -129.2 160 -2.16707e-22 -1.91683e-22 2.4845e-42
205.976 65.567 160 8.40779e-45 -1.38567e-27 -9.53574e-27
132.938 6.888 160 -9.4162e-27 -9.55514e-27 -9.51392e-27
111.915 -92.994 160 -9.41624e-27 -9.51516e-27 -9.51519e-27
59.899 -90.496 160 -9.41721e-27 -9.55332e-27 -9.5145e-27
39.3 44.343 160 -9.41725e-27 -9.5152e-27 -9.51388e-27
13.082 -47.423 160 -9.41727e-27 -9.51522e-27 -9.51392e-27
8.087 50.585 160 -9.41761e-27 2.4845e-42 1.4013e-45
8.087 -45.55 160 -2.1748e-22 -2.16707e-22 -1.81666e-22
8.087 -59.284 160 0 0 0
-6.894 -45.55 160 2.4845e-42 1.4013e-45 -2.17569e-22
-29.367 -76.139 160 -2.16873e-22 -1.82085e-22 0
-29.367 -132.32 160 0 0 2.4845e-42
-47.471 -129.2 160 1.4013e-45 -2.17441e-22 -2.19844e-22
254.044 -9.968 160 -1.96275e-22 0 0
282.135 -92.369 160 0 2.4845e-42 2.8026e-45
300.239 -7.472 160 -2.19846e-22 -2.16707e-22 -1.96279e-22
215.341 -243.438 160 -2.19843e-22 -2.16924e-22 -1.96283e-22
251.548 59.323 160 2.4845e-42 5.04467e-44 -2.17433e-22
187.248 -166.031 160 -2.16707e-22 -1.81517e-22 -1.33744e-27
184.267 -202.239 160 -2.16707e-22 -1.81522e-22 -2.17432e-22
141.677 -179.142 160 -2.1746e-22 -1.81522e-22 -1.33763e-27
137.931 -243.438 160 -2.16924e-22 -1.81523e-22 -3.29247e-28
137.931 -147.927 160 -2.16924e-22 -1.81527e-22 -2.1746e-22
109.219 -118.587 160 -2.17056e-22 -1.81528e-22 -3.07418e-23
97.98 -141.686 160 -2.16707e-22 -1.81528e-22 -3.07418e-23
88.616 -188.505 160 -2.16707e-22 -1.81529e-22 -1.38773e-27
54.906 -129.824 160 -2.16707e-22 -1.8153e-22 -5.6673e-26
42.421 -173.522 160 -2.16707e-22 -1.81531e-22 -1.38228e-27
-25.624 -33.065 160 -2.16707e-22 -1.81531e-22 -3.09317e-23
-26.87 38.101 160 -2.16924e-22 -1.81561e-22 -2.17461e-22
-46.845 114.885 160 -2.16924e-22 -1.81566e-22 -5.53515e-26
-94.29 21.87 160 -2.16924e-22 -1.81572e-22 -2.17462e-22
-103.031 98.028 160 -2.1726e-22 -1.81577e-22 -5.65112e-26
-52.464 -48.671 160 -2.16875e-22 -1.81578e-22 -2.17463e-22
-26.87 0.645 160 -2.16971e-22 -1.81578e-22 -1.40298e-27
-50.593 -15.585 160 -2.16873e-22 -1.8158e-22 -3.09236e-23
427.211 38.471 160 -2.17464e-22 -1.81591e-22 -1.34701e-27
418.786 355.783 160 -2.16971e-22 -1.816e-22 -1.34295e-27
515.667 222.398 160 -2.16873e-22 -1.81605e-22 -1.4475e-24
390.704 94.633 160 -2.16707e-22 -1.81612e-22 -1.34008e-27
375.26 59.531 160 -2.16707e-22 -1.81612e-22 -1.34167e-27
333.141 348.766 160 -2.16707e-22 -1.81613e-22 -1.34167e-27
317.695 279.967 160 -2.16873e-22 -1.81621e-22 -2.17452e-22
274.171 59.531 160 -2.16707e-22 -1.81632e-22 -2.17452e-22
220.818 125.521 160 -2.17255e-22 -1.81633e-22 -1.34199e-27
125.34 163.43 160 -2.17255e-22 -1.81634e-22 -1.34858e-27
125.34 271.543 160 -2.17255e-22 -1.81639e-22 -1.33787e-27
101.477 316.471 160 -2.16707e-22 -1.81639e-22 -3.29557e-28
466.525 -42.964 160 -2.16707e-22 -1.81644e-22 -1.33978e-27
459.975 -9.269 160 -2.16707e-22 -1.81646e-22 -1.34682e-27
515.667 23.025 160 -2.16707e-22 -1.81646e-22 -1.34547e-27
439.848 23.025 160 -2.16875e-22 -1.81647e-22 -2.04411e-28
406.148 -7.862 160 -2.16875e-22 -1.81647e-22 -1.35248e-27
390.704 -68.235 160 -2.17358e-22 -1.81648e-22 0
3 0 1 2
3 2 3 0
3 3 2 4
3 5 6 7
3 8 6 5
3 8 9 6
3 3 9 8
3 4 9 3
3 4 10 9
3 11 10 4
3 11 12 10
3 13 12 11
3 14 12 13
3 14 15 12
3 16 15 14
3 17 15 16
3 17 18 15
3 18 17 19
3 20 21 22
3 20 23 21
3 24 23 20
3 7 23 24
3 6 23 7
3 25 23 6
3 26 23 25
3 27 23 26
3 27 28 23
3 29 28 27
3 30 28 29
3 31 28 30
3 31 32 28
3 33 32 31
3 32 33 34
3 13 16 14
3 13 35 16
3 13 36 35
3 37 36 13
3 37 38 36
3 38 37 39
3 16 40 17
3 41 35 36
3 35 41 42
3 43 44 45
3 46 44 43
3 47 44 46
3 47 48 44
3 47 49 48
3 50 49 47
3 51 49 50
3 52 49 51
3 53 49 52
3 49 53 54
3 55 56 57
3 55 58 56
3 55 59 58
3 59 55 60
