ply
format ascii 1.0
element vertex 61
property float x
property float y
property float z
property float nx
property float ny
property float nz
element face 56
property list uchar int vertex_indices
end_header
152.916 72.433 0 0 0 1
111.915 94.908 0 0 0 1
126.696 66.816 0 0 0 1
107.967 14.377 0 515.667 23.025 2.75506e-40
61.149 33.105 0 -8.98383e-19 0 0
190.995 109.266 0 -4.13604e-33 -8.98795e-19 0
202.854 -129.2 0 0 0 0
205.976 65.567 0 0 0 0
132.938 6.888 0 1.4013e-45 0 1.68156e-43
111.915 -92.994 0 1.12829e-37 5.39865e-11 1.16269e+27
59.899 -90.496 0 7.03092e+28 4.51454e+27 5.21604e-11
39.3 44.343 0 2.72077e+23 1.68832e+25 6.82915e+22
13.082 -47.423 0 1.84897e+31 7.14396e+31 1.01419e-38
8.087 50.585 0 0 -2.92694e-19 1.1283e-37
8.087 -45.55 0 3.58732e-43 0 9.18355e-41
8.087 -59.284 0 0 0 -1.14142e-24
-6.894 -45.55 0 -1.14273e-24 -1.27415e-24 0
-29.367 -76.139 0 0 -1.13645e-24 -1.14281e-24
-29.367 -132.32 0 -1.1428e-24 -1.14326e-24 -1.14145e-24
-47.471 -129.2 0 0 2.24208e-44 1.4013e-45
254.044 -9.968 0 1.12104e-44 0 0
282.135 -92.369 0 0 0 0
300.239 -7.472 0 0 0 0
215.341 -243.438 0 0 0 0
251.548 59.323 0 0 0 0
187.248 -166.031 0 0 0 0
184.267 -202.239 0 0 0 -3.17213e-19
141.677 -179.142 0 2.35232e-38 4.59184e-40 0
137.931 -243.438 0 5.60519e-45 3.82036e-37 1.17664e-38
137.931 -147.927 0 1.50757e-36 2.8721e-41 1.12923e-37
109.219 -118.587 0 1.12918e-37 0 4.34403e-44
97.98 -141.686 0 5.60519e-45 0 0
88.616 -188.505 0 0 0 0
54.906 -129.824 0 0 1.12489e-37 0
42.421 -173.522 0 0 0 0
-25.624 -33.065 0 0 0 0
-26.87 38.101 0 0 0 0
-46.845 114.885 0 0 0 0
-94.29 21.87 0 1.12487e-37 0 0
-103.031 98.028 0 0 0 1.83365e-38
-52.464 -48.671 0 1.12487e-37 0 0
-26.87 0.645 0 0 0 0
-50.593 -15.585 0 0 0 1.47519e-37
427.211 38.471 0 2.28297e-38 0 -4
418.786 355.783 0 778 16 16
515.667 222.398 0 790 3.58732e-43 0
390.704 94.633 0 0 0 2.4845e-42
375.26 59.531 0 2.8026e-45 -1.34518e-27 -1.33782e-27
333.141 348.766 0 -5.54795e-28 -1.4279e-27 -1.33784e-27
317.695 279.967 0 -6.44321e-28 1.12944e-37 1.12944e-37
274.171 59.531 0 -1.81249e-22 0 5.60519e-45
220.818 125.521 0 1.4013e-45 2.07968e-35 2.27954e-38
125.34 163.43 0 2.23692e+08 0 1.1614e-41
125.34 271.543 0 0 6.81592e-42 6.81592e-42
101.477 316.471 0 0 1.12835e-37 0
466.525 -42.964 0 0 1.12835e-37 207.306
459.975 -9.269 0 0 -1.0842e-19 0
515.667 23.025 0 0 0 1.4013e-45
439.848 23.025 0 0 0 0
406.148 -7.862 0 0 7.34685e-40 5.60519e-45
390.704 -68.235 0 2.79095e-40 1.12104e-44 5.73972e-42
3 0 1 2
3 2 3 0
3 3 2 4
3 5 6 7
3 8 6 5
3 8 9 6
3 3 9 8
3 4 9 3
3 4 10 9
3 11 10 4
3 11 12 10
3 13 12 11
3 14 12 13
3 14 15 12
3 16 15 14
3 17 15 16
3 17 18 15
3 18 17 19
3 20 21 22
3 20 23 21
3 24 23 20
3 7 23 24
3 6 23 7
3 25 23 6
3 26 23 25
3 27 23 26
3 27 28 23
3 29 28 27
3 30 28 29
3 31 28 30
3 31 32 28
3 33 32 31
3 32 33 34
3 13 16 14
3 13 35 16
3 13 36 35
3 37 36 13
3 37 38 36
3 38 37 39
3 16 40 17
3 41 35 36
3 35 41 42
3 43 44 45
3 46 44 43
3 47 44 46
3 47 48 44
3 47 49 48
3 50 49 47
3 51 49 50
3 52 49 51
3 53 49 52
3 49 53 54
3 55 56 57
3 55 58 56
3 55 59 58
3 59 55 60
