<?xml version="1.0" encoding="utf-8"?>
<!-- Generator: Adobe Illustrator 16.0.0, SVG Export Plug-In . SVG Version: 6.00 Build 0)  -->
<!DOCTYPE svg PUBLIC "-//W3C//DTD SVG 1.1//EN" "http://www.w3.org/Graphics/SVG/1.1/DTD/svg11.dtd">
<svg version="1.1" id="MAP" xmlns="http://www.w3.org/2000/svg" xmlns:xlink="http://www.w3.org/1999/xlink" x="0px" y="0px"
	 width="3600px" height="2160px" viewBox="0 0 3600 2160" enable-background="new 0 0 3600 2160" xml:space="preserve">
<g id="EU">
	<polygon fill="#3C3C3B" stroke="#000000" stroke-miterlimit="10" points="8.087,50.585 -46.845,114.885 -103.031,98.028 
		-94.29,21.87 -26.87,38.101 -26.87,0.645 -50.593,-15.585 -25.624,-33.065 -6.894,-45.55 8.087,-45.55 -6.894,-45.55 
		-52.464,-48.671 -29.367,-76.139 -47.471,-129.2 -29.367,-132.32 8.087,-59.284 13.082,-47.423 59.899,-90.496 111.915,-92.994 
		202.854,-129.2 187.248,-166.031 184.267,-202.239 141.677,-179.142 137.931,-147.927 109.219,-118.587 97.98,-141.686 
		54.906,-129.824 42.421,-173.522 88.616,-188.505 137.931,-243.438 215.341,-243.438 282.135,-92.369 300.239,-7.472 
		254.044,-9.968 251.548,59.323 205.976,65.567 190.995,109.266 132.938,6.888 107.967,14.377 152.916,72.433 111.915,94.908 
		126.696,66.816 61.149,33.105 39.3,44.343 	"/>
</g>
<g id="AU">
	<polygon fill="#3C3C3B" stroke="#000000" stroke-miterlimit="10" points="427.211,38.471 390.704,94.633 375.26,59.531 
		274.171,59.531 220.818,125.521 125.34,163.43 125.34,271.543 101.477,316.471 317.695,279.967 333.141,348.766 418.786,355.783 
		515.667,222.398 	"/>
	<polygon fill="#3C3C3B" stroke="#000000" stroke-miterlimit="10" points="390.704,-68.235 406.148,-7.862 439.848,23.025 
		459.975,-9.269 515.667,23.025 466.525,-42.964 	"/>
</g>
</svg>
