<?xml version="1.0" encoding="utf-8"?>
<!-- Generator: Adobe Illustrator 16.0.0, SVG Export Plug-In . SVG Version: 6.00 Build 0)  -->
<!DOCTYPE svg PUBLIC "-//W3C//DTD SVG 1.1//EN" "http://www.w3.org/Graphics/SVG/1.1/DTD/svg11.dtd">
<svg version="1.1" id="MAP" xmlns="http://www.w3.org/2000/svg" xmlns:xlink="http://www.w3.org/1999/xlink" x="0px" y="0px"
	 width="3600px" height="2160px" viewBox="0 0 3600 2160" enable-background="new 0 0 3600 2160" xml:space="preserve">
<g id="NA">
	<polygon fill="#3C3C3B" stroke="#000000" stroke-miterlimit="10" points="-519.389,-265.133 -378.408,-308.658 -136.913,-297.426 
		-412.105,-107.882 -430.358,-228.628 	"/>
	<polygon fill="#3C3C3B" stroke="#000000" stroke-miterlimit="10" points="-1324.699,-172.9 -1145.538,-262.793 -1003.208,-235.949 
		-907.696,-262.793 -852.764,-230.954 -633.649,-227.21 -728.537,-176.646 -758.5,-122.335 -691.081,-74.268 -620.541,-168.529 
		-523.156,-139.815 -461.356,-63.03 -565.604,-46.803 -569.353,4.388 -718.548,83.044 -724.165,137.354 -792.833,176.059 
		-816.557,249.096 -849.641,189.791 -956.39,204.773 -988.849,293.418 -940.781,315.269 -918.308,284.055 -882.103,287.175 
		-893.027,336.492 -860.254,345.231 -857.757,377.067 -912.066,381.438 -1088.731,304.653 -1061.887,281.556 -1119.319,186.047 
		-1123.064,263.453 -1168.635,175.435 -1167.386,56.202 -1119.944,-9.968 -1131.18,-98.615 -1183.619,-142.311 -1334.687,-102.358 
		-1277.256,-137.94 	"/>
	<polygon fill="#3C3C3B" stroke="#000000" stroke-miterlimit="10" points="-1324.699,-172.9 -1145.538,-262.793 -1003.208,-235.949 
		-907.696,-262.793 -852.764,-230.954 -633.649,-227.21 -728.537,-176.646 -758.5,-122.335 -691.081,-74.268 -620.541,-168.529 
		-523.156,-139.815 -461.356,-63.03 -565.604,-46.803 -569.353,4.388 -718.548,83.044 -724.165,137.354 -792.833,176.059 
		-816.557,249.096 -849.641,189.791 -956.39,204.773 -988.849,293.418 -940.781,315.269 -918.308,284.055 -882.103,287.175 
		-893.027,336.492 -860.254,345.231 -857.757,377.067 -912.066,381.438 -1088.731,304.653 -1061.887,281.556 -1119.319,186.047 
		-1123.064,263.453 -1168.635,175.435 -1167.386,56.202 -1119.944,-9.968 -1131.18,-98.615 -1183.619,-142.311 -1334.687,-102.358 
		-1277.256,-137.94 	"/>
</g>
<g id="SA">
	<polygon fill="#3C3C3B" stroke="#000000" stroke-miterlimit="10" points="-910.817,384.562 -857.755,381.438 -799.076,429.506 
		-734.778,394.549 -638.018,417.646 -563.107,461.966 -524.404,531.26 -378.952,604.923 -434.513,798.439 -503.18,834.023 
		-546.25,935.154 -623.036,1068.119 -568.1,1171.744 -654.873,1117.434 -694.824,1048.768 -718.546,744.756 -792.208,719.162 
		-837.778,582.449 -808.439,475.079 	"/>
</g>
<g id="EU">
	<polygon fill="#3C3C3B" stroke="#000000" stroke-miterlimit="10" points="8.087,50.585 -46.845,114.885 -103.031,98.028 
		-94.29,21.87 -26.87,38.101 -26.87,0.645 -50.593,-15.585 -25.624,-33.065 -6.894,-45.55 8.087,-45.55 -6.894,-45.55 
		-52.464,-48.671 -29.367,-76.139 -47.471,-129.2 -29.367,-132.32 8.087,-59.284 13.082,-47.423 59.899,-90.496 111.915,-92.994 
		202.854,-129.2 187.248,-166.031 184.267,-202.239 141.677,-179.142 137.931,-147.927 109.219,-118.587 97.98,-141.686 
		54.906,-129.824 42.421,-173.522 88.616,-188.505 137.931,-243.438 215.341,-243.438 282.135,-92.369 300.239,-7.472 
		254.044,-9.968 251.548,59.323 205.976,65.567 190.995,109.266 132.938,6.888 107.967,14.377 152.916,72.433 111.915,94.908 
		126.696,66.816 61.149,33.105 39.3,44.343 	"/>
</g>
<g id="AF">
	<polygon fill="#3C3C3B" stroke="#000000" stroke-miterlimit="10" points="-61.679,130.03 -197.132,282.156 -197.132,381.438 
		-103.031,488.465 11.259,459.291 84.196,488.465 138.379,661.43 98.604,730.199 171.723,930.258 278,894.83 321.762,765.627 
		400.952,701.024 365.526,592.659 467.636,492.632 509.316,404.218 430.128,423.864 311.343,205.052 300.239,184.213 
		167.553,188.381 111.915,114.885 	"/>
	<polygon fill="#3C3C3B" stroke="#000000" stroke-miterlimit="10" points="485.544,683.531 437.809,717.228 409.727,793.047 
		419.552,826.744 456.061,819.723 	"/>
	<polygon fill="#3C3C3B" stroke="#000000" stroke-miterlimit="10" points="485.544,683.531 437.809,717.228 409.727,793.047 
		419.552,826.744 456.061,819.723 	"/>
</g>
<g id="AS">
	<polygon fill="#3C3C3B" stroke="#000000" stroke-miterlimit="10" points="219.245,-243.438 285.236,-93.371 303.018,-8.661 
		339.523,-8.661 342.332,21.761 381.646,40.948 374.159,54.987 294.129,50.775 235.627,74.178 267.453,125.19 322.676,111.149 
		303.957,183.224 317.998,210.839 435.468,381.194 532.814,344.221 579.618,279.167 500.521,260.446 463.083,180.417 
		527.201,230.492 614.251,233.302 692.878,288.528 775.718,433.144 790.223,346.562 873.529,277.763 952.624,344.221 
		990.532,471.051 1037.801,514.111 998.487,384.469 1049.973,418.635 1082.73,400.381 1052.311,293.675 1149.657,257.64 
		1155.273,145.784 1118.771,77.454 1215.179,125.19 1187.566,70.902 1227.35,32.992 1236.239,-26.446 1155.273,-88.692 
		1163.229,-139.704 1281.639,-175.743 1364.477,-50.314 1355.117,-154.214 1444.975,-197.739 1255.896,-248.752 952.157,-257.645 
		734.062,-325.505 316.128,-203.354 267.92,-243.438 	"/>
	<g>
		<polygon fill="#3C3C3B" stroke="#000000" stroke-miterlimit="10" points="1285.848,19.42 1301.291,94.304 1245.128,126.127 
			1252.148,166.844 1273.21,138.763 1327.968,114.885 1313.927,43.288 		"/>
	</g>
	<g>
		<polygon fill="#3C3C3B" stroke="#000000" stroke-miterlimit="10" points="1211.434,308.651 1181.95,367.622 1219.855,395.702 
			1225.473,438.218 1259.171,463.097 1259.171,404.218 1220.561,360.601 		"/>
	</g>
	<g>
		<polygon fill="#3C3C3B" stroke="#000000" stroke-miterlimit="10" points="1174.928,454.673 1181.95,522.571 1152.462,581.036 
			1108.938,568.401 1093.491,505.218 		"/>
	</g>
	<g>
		<polygon fill="#3C3C3B" stroke="#000000" stroke-miterlimit="10" points="941.857,482.754 1035.929,613.329 1205.818,647.025 
			1059.798,581.036 		"/>
	</g>
</g>
<g id="AU">
	<polygon fill="#3C3C3B" stroke="#000000" stroke-miterlimit="10" points="1412.211,662.471 1375.704,718.633 1360.26,683.531 
		1259.171,683.531 1205.818,749.521 1110.34,787.43 1110.34,895.543 1086.477,940.471 1302.695,903.967 1318.141,972.766 
		1403.786,979.783 1500.667,846.398 	"/>
	<polygon fill="#3C3C3B" stroke="#000000" stroke-miterlimit="10" points="1375.704,555.765 1391.148,616.138 1424.848,647.025 
		1444.975,614.731 1500.667,647.025 1451.525,581.036 	"/>
</g>
</svg>
