ply
format ascii 1.0
element vertex 1584
property float x
property float y
property float z
element face 528
property list uchar int vertex_indices
end_header
-136.913 -297.426 0
-136.913 -297.426 3.2
-412.105 -107.882 3.2
-136.913 -297.426 0
-412.105 -107.882 3.2
-412.105 -107.882 0
-412.105 -107.882 0
-412.105 -107.882 3.2
-430.358 -228.628 3.2
-412.105 -107.882 0
-430.358 -228.628 3.2
-430.358 -228.628 0
-430.358 -228.628 0
-430.358 -228.628 3.2
-519.389 -265.133 3.2
-430.358 -228.628 0
-519.389 -265.133 3.2
-519.389 -265.133 0
-519.389 -265.133 0
-519.389 -265.133 3.2
-378.408 -308.658 3.2
-519.389 -265.133 0
-378.408 -308.658 3.2
-378.408 -308.658 0
-378.408 -308.658 0
-378.408 -308.658 3.2
-136.913 -297.426 3.2
-378.408 -308.658 0
-136.913 -297.426 3.2
-136.913 -297.426 0
-792.833 176.059 0
-792.833 176.059 3.2
-816.557 249.096 3.2
-792.833 176.059 0
-816.557 249.096 3.2
-816.557 249.096 0
-816.557 249.096 0
-816.557 249.096 3.2
-849.641 189.791 3.2
-816.557 249.096 0
-849.641 189.791 3.2
-849.641 189.791 0
-849.641 189.791 0
-849.641 189.791 3.2
-956.39 204.773 3.2
-849.641 189.791 0
-956.39 204.773 3.2
-956.39 204.773 0
-956.39 204.773 0
-956.39 204.773 3.2
-988.849 293.418 3.2
-956.39 204.773 0
-988.849 293.418 3.2
-988.849 293.418 0
-988.849 293.418 0
-988.849 293.418 3.2
-940.781 315.269 3.2
-988.849 293.418 0
-940.781 315.269 3.2
-940.781 315.269 0
-940.781 315.269 0
-940.781 315.269 3.2
-918.308 284.055 3.2
-940.781 315.269 0
-918.308 284.055 3.2
-918.308 284.055 0
-918.308 284.055 0
-918.308 284.055 3.2
-882.103 287.175 3.2
-918.308 284.055 0
-882.103 287.175 3.2
-882.103 287.175 0
-882.103 287.175 0
-882.103 287.175 3.2
-893.027 336.492 3.2
-882.103 287.175 0
-893.027 336.492 3.2
-893.027 336.492 0
-893.027 336.492 0
-893.027 336.492 3.2
-860.254 345.231 3.2
-893.027 336.492 0
-860.254 345.231 3.2
-860.254 345.231 0
-860.254 345.231 0
-860.254 345.231 3.2
-857.757 377.067 3.2
-860.254 345.231 0
-857.757 377.067 3.2
-857.757 377.067 0
-857.757 377.067 0
-857.757 377.067 3.2
-912.066 381.438 3.2
-857.757 377.067 0
-912.066 381.438 3.2
-912.066 381.438 0
-912.066 381.438 0
-912.066 381.438 3.2
-1088.73 304.653 3.2
-912.066 381.438 0
-1088.73 304.653 3.2
-1088.73 304.653 0
-1088.73 304.653 0
-1088.73 304.653 3.2
-1061.89 281.556 3.2
-1088.73 304.653 0
-1061.89 281.556 3.2
-1061.89 281.556 0
-1061.89 281.556 0
-1061.89 281.556 3.2
-1119.32 186.047 3.2
-1061.89 281.556 0
-1119.32 186.047 3.2
-1119.32 186.047 0
-1119.32 186.047 0
-1119.32 186.047 3.2
-1123.06 263.453 3.2
-1119.32 186.047 0
-1123.06 263.453 3.2
-1123.06 263.453 0
-1123.06 263.453 0
-1123.06 263.453 3.2
-1168.64 175.435 3.2
-1123.06 263.453 0
-1168.64 175.435 3.2
-1168.64 175.435 0
-1168.64 175.435 0
-1168.64 175.435 3.2
-1167.39 56.202 3.2
-1168.64 175.435 0
-1167.39 56.202 3.2
-1167.39 56.202 0
-1167.39 56.202 0
-1167.39 56.202 3.2
-1119.94 -9.968 3.2
-1167.39 56.202 0
-1119.94 -9.968 3.2
-1119.94 -9.968 0
-1119.94 -9.968 0
-1119.94 -9.968 3.2
-1131.18 -98.615 3.2
-1119.94 -9.968 0
-1131.18 -98.615 3.2
-1131.18 -98.615 0
-1131.18 -98.615 0
-1131.18 -98.615 3.2
-1183.62 -142.311 3.2
-1131.18 -98.615 0
-1183.62 -142.311 3.2
-1183.62 -142.311 0
-1183.62 -142.311 0
-1183.62 -142.311 3.2
-1334.69 -102.358 3.2
-1183.62 -142.311 0
-1334.69 -102.358 3.2
-1334.69 -102.358 0
-1334.69 -102.358 0
-1334.69 -102.358 3.2
-1277.26 -137.94 3.2
-1334.69 -102.358 0
-1277.26 -137.94 3.2
-1277.26 -137.94 0
-1277.26 -137.94 0
-1277.26 -137.94 3.2
-1324.7 -172.9 3.2
-1277.26 -137.94 0
-1324.7 -172.9 3.2
-1324.7 -172.9 0
-1324.7 -172.9 0
-1324.7 -172.9 3.2
-1145.54 -262.793 3.2
-1324.7 -172.9 0
-1145.54 -262.793 3.2
-1145.54 -262.793 0
-1145.54 -262.793 0
-1145.54 -262.793 3.2
-1003.21 -235.949 3.2
-1145.54 -262.793 0
-1003.21 -235.949 3.2
-1003.21 -235.949 0
-1003.21 -235.949 0
-1003.21 -235.949 3.2
-907.696 -262.793 3.2
-1003.21 -235.949 0
-907.696 -262.793 3.2
-907.696 -262.793 0
-907.696 -262.793 0
-907.696 -262.793 3.2
-852.764 -230.954 3.2
-907.696 -262.793 0
-852.764 -230.954 3.2
-852.764 -230.954 0
-852.764 -230.954 0
-852.764 -230.954 3.2
-633.649 -227.21 3.2
-852.764 -230.954 0
-633.649 -227.21 3.2
-633.649 -227.21 0
-633.649 -227.21 0
-633.649 -227.21 3.2
-728.537 -176.646 3.2
-633.649 -227.21 0
-728.537 -176.646 3.2
-728.537 -176.646 0
-728.537 -176.646 0
-728.537 -176.646 3.2
-758.5 -122.335 3.2
-728.537 -176.646 0
-758.5 -122.335 3.2
-758.5 -122.335 0
-758.5 -122.335 0
-758.5 -122.335 3.2
-691.081 -74.268 3.2
-758.5 -122.335 0
-691.081 -74.268 3.2
-691.081 -74.268 0
-691.081 -74.268 0
-691.081 -74.268 3.2
-620.541 -168.529 3.2
-691.081 -74.268 0
-620.541 -168.529 3.2
-620.541 -168.529 0
-620.541 -168.529 0
-620.541 -168.529 3.2
-523.156 -139.815 3.2
-620.541 -168.529 0
-523.156 -139.815 3.2
-523.156 -139.815 0
-523.156 -139.815 0
-523.156 -139.815 3.2
-461.356 -63.03 3.2
-523.156 -139.815 0
-461.356 -63.03 3.2
-461.356 -63.03 0
-461.356 -63.03 0
-461.356 -63.03 3.2
-565.604 -46.803 3.2
-461.356 -63.03 0
-565.604 -46.803 3.2
-565.604 -46.803 0
-565.604 -46.803 0
-565.604 -46.803 3.2
-569.353 4.388 3.2
-565.604 -46.803 0
-569.353 4.388 3.2
-569.353 4.388 0
-569.353 4.388 0
-569.353 4.388 3.2
-718.548 83.044 3.2
-569.353 4.388 0
-718.548 83.044 3.2
-718.548 83.044 0
-718.548 83.044 0
-718.548 83.044 3.2
-724.165 137.354 3.2
-718.548 83.044 0
-724.165 137.354 3.2
-724.165 137.354 0
-724.165 137.354 0
-724.165 137.354 3.2
-792.833 176.059 3.2
-724.165 137.354 0
-792.833 176.059 3.2
-792.833 176.059 0
-792.833 176.059 0
-792.833 176.059 3.2
-816.557 249.096 3.2
-792.833 176.059 0
-816.557 249.096 3.2
-816.557 249.096 0
-816.557 249.096 0
-816.557 249.096 3.2
-849.641 189.791 3.2
-816.557 249.096 0
-849.641 189.791 3.2
-849.641 189.791 0
-849.641 189.791 0
-849.641 189.791 3.2
-956.39 204.773 3.2
-849.641 189.791 0
-956.39 204.773 3.2
-956.39 204.773 0
-956.39 204.773 0
-956.39 204.773 3.2
-988.849 293.418 3.2
-956.39 204.773 0
-988.849 293.418 3.2
-988.849 293.418 0
-988.849 293.418 0
-988.849 293.418 3.2
-940.781 315.269 3.2
-988.849 293.418 0
-940.781 315.269 3.2
-940.781 315.269 0
-940.781 315.269 0
-940.781 315.269 3.2
-918.308 284.055 3.2
-940.781 315.269 0
-918.308 284.055 3.2
-918.308 284.055 0
-918.308 284.055 0
-918.308 284.055 3.2
-882.103 287.175 3.2
-918.308 284.055 0
-882.103 287.175 3.2
-882.103 287.175 0
-882.103 287.175 0
-882.103 287.175 3.2
-893.027 336.492 3.2
-882.103 287.175 0
-893.027 336.492 3.2
-893.027 336.492 0
-893.027 336.492 0
-893.027 336.492 3.2
-860.254 345.231 3.2
-893.027 336.492 0
-860.254 345.231 3.2
-860.254 345.231 0
-860.254 345.231 0
-860.254 345.231 3.2
-857.757 377.067 3.2
-860.254 345.231 0
-857.757 377.067 3.2
-857.757 377.067 0
-857.757 377.067 0
-857.757 377.067 3.2
-912.066 381.438 3.2
-857.757 377.067 0
-912.066 381.438 3.2
-912.066 381.438 0
-912.066 381.438 0
-912.066 381.438 3.2
-1088.73 304.653 3.2
-912.066 381.438 0
-1088.73 304.653 3.2
-1088.73 304.653 0
-1088.73 304.653 0
-1088.73 304.653 3.2
-1061.89 281.556 3.2
-1088.73 304.653 0
-1061.89 281.556 3.2
-1061.89 281.556 0
-1061.89 281.556 0
-1061.89 281.556 3.2
-1119.32 186.047 3.2
-1061.89 281.556 0
-1119.32 186.047 3.2
-1119.32 186.047 0
-1119.32 186.047 0
-1119.32 186.047 3.2
-1123.06 263.453 3.2
-1119.32 186.047 0
-1123.06 263.453 3.2
-1123.06 263.453 0
-1123.06 263.453 0
-1123.06 263.453 3.2
-1168.64 175.435 3.2
-1123.06 263.453 0
-1168.64 175.435 3.2
-1168.64 175.435 0
-1168.64 175.435 0
-1168.64 175.435 3.2
-1167.39 56.202 3.2
-1168.64 175.435 0
-1167.39 56.202 3.2
-1167.39 56.202 0
-1167.39 56.202 0
-1167.39 56.202 3.2
-1119.94 -9.968 3.2
-1167.39 56.202 0
-1119.94 -9.968 3.2
-1119.94 -9.968 0
-1119.94 -9.968 0
-1119.94 -9.968 3.2
-1131.18 -98.615 3.2
-1119.94 -9.968 0
-1131.18 -98.615 3.2
-1131.18 -98.615 0
-1131.18 -98.615 0
-1131.18 -98.615 3.2
-1183.62 -142.311 3.2
-1131.18 -98.615 0
-1183.62 -142.311 3.2
-1183.62 -142.311 0
-1183.62 -142.311 0
-1183.62 -142.311 3.2
-1334.69 -102.358 3.2
-1183.62 -142.311 0
-1334.69 -102.358 3.2
-1334.69 -102.358 0
-1334.69 -102.358 0
-1334.69 -102.358 3.2
-1277.26 -137.94 3.2
-1334.69 -102.358 0
-1277.26 -137.94 3.2
-1277.26 -137.94 0
-1277.26 -137.94 0
-1277.26 -137.94 3.2
-1324.7 -172.9 3.2
-1277.26 -137.94 0
-1324.7 -172.9 3.2
-1324.7 -172.9 0
-1324.7 -172.9 0
-1324.7 -172.9 3.2
-1145.54 -262.793 3.2
-1324.7 -172.9 0
-1145.54 -262.793 3.2
-1145.54 -262.793 0
-1145.54 -262.793 0
-1145.54 -262.793 3.2
-1003.21 -235.949 3.2
-1145.54 -262.793 0
-1003.21 -235.949 3.2
-1003.21 -235.949 0
-1003.21 -235.949 0
-1003.21 -235.949 3.2
-907.696 -262.793 3.2
-1003.21 -235.949 0
-907.696 -262.793 3.2
-907.696 -262.793 0
-907.696 -262.793 0
-907.696 -262.793 3.2
-852.764 -230.954 3.2
-907.696 -262.793 0
-852.764 -230.954 3.2
-852.764 -230.954 0
-852.764 -230.954 0
-852.764 -230.954 3.2
-633.649 -227.21 3.2
-852.764 -230.954 0
-633.649 -227.21 3.2
-633.649 -227.21 0
-633.649 -227.21 0
-633.649 -227.21 3.2
-728.537 -176.646 3.2
-633.649 -227.21 0
-728.537 -176.646 3.2
-728.537 -176.646 0
-728.537 -176.646 0
-728.537 -176.646 3.2
-758.5 -122.335 3.2
-728.537 -176.646 0
-758.5 -122.335 3.2
-758.5 -122.335 0
-758.5 -122.335 0
-758.5 -122.335 3.2
-691.081 -74.268 3.2
-758.5 -122.335 0
-691.081 -74.268 3.2
-691.081 -74.268 0
-691.081 -74.268 0
-691.081 -74.268 3.2
-620.541 -168.529 3.2
-691.081 -74.268 0
-620.541 -168.529 3.2
-620.541 -168.529 0
-620.541 -168.529 0
-620.541 -168.529 3.2
-523.156 -139.815 3.2
-620.541 -168.529 0
-523.156 -139.815 3.2
-523.156 -139.815 0
-523.156 -139.815 0
-523.156 -139.815 3.2
-461.356 -63.03 3.2
-523.156 -139.815 0
-461.356 -63.03 3.2
-461.356 -63.03 0
-461.356 -63.03 0
-461.356 -63.03 3.2
-565.604 -46.803 3.2
-461.356 -63.03 0
-565.604 -46.803 3.2
-565.604 -46.803 0
-565.604 -46.803 0
-565.604 -46.803 3.2
-569.353 4.388 3.2
-565.604 -46.803 0
-569.353 4.388 3.2
-569.353 4.388 0
-569.353 4.388 0
-569.353 4.388 3.2
-718.548 83.044 3.2
-569.353 4.388 0
-718.548 83.044 3.2
-718.548 83.044 0
-718.548 83.044 0
-718.548 83.044 3.2
-724.165 137.354 3.2
-718.548 83.044 0
-724.165 137.354 3.2
-724.165 137.354 0
-724.165 137.354 0
-724.165 137.354 3.2
-792.833 176.059 3.2
-724.165 137.354 0
-792.833 176.059 3.2
-792.833 176.059 0
-623.036 1068.12 0
-623.036 1068.12 3.2
-568.1 1171.74 3.2
-623.036 1068.12 0
-568.1 1171.74 3.2
-568.1 1171.74 0
-568.1 1171.74 0
-568.1 1171.74 3.2
-654.873 1117.43 3.2
-568.1 1171.74 0
-654.873 1117.43 3.2
-654.873 1117.43 0
-654.873 1117.43 0
-654.873 1117.43 3.2
-694.824 1048.77 3.2
-654.873 1117.43 0
-694.824 1048.77 3.2
-694.824 1048.77 0
-694.824 1048.77 0
-694.824 1048.77 3.2
-718.546 744.756 3.2
-694.824 1048.77 0
-718.546 744.756 3.2
-718.546 744.756 0
-718.546 744.756 0
-718.546 744.756 3.2
-792.208 719.162 3.2
-718.546 744.756 0
-792.208 719.162 3.2
-792.208 719.162 0
-792.208 719.162 0
-792.208 719.162 3.2
-837.778 582.449 3.2
-792.208 719.162 0
-837.778 582.449 3.2
-837.778 582.449 0
-837.778 582.449 0
-837.778 582.449 3.2
-808.439 475.079 3.2
-837.778 582.449 0
-808.439 475.079 3.2
-808.439 475.079 0
-808.439 475.079 0
-808.439 475.079 3.2
-910.817 384.562 3.2
-808.439 475.079 0
-910.817 384.562 3.2
-910.817 384.562 0
-910.817 384.562 0
-910.817 384.562 3.2
-857.755 381.438 3.2
-910.817 384.562 0
-857.755 381.438 3.2
-857.755 381.438 0
-857.755 381.438 0
-857.755 381.438 3.2
-799.076 429.506 3.2
-857.755 381.438 0
-799.076 429.506 3.2
-799.076 429.506 0
-799.076 429.506 0
-799.076 429.506 3.2
-734.778 394.549 3.2
-799.076 429.506 0
-734.778 394.549 3.2
-734.778 394.549 0
-734.778 394.549 0
-734.778 394.549 3.2
-638.018 417.646 3.2
-734.778 394.549 0
-638.018 417.646 3.2
-638.018 417.646 0
-638.018 417.646 0
-638.018 417.646 3.2
-563.107 461.966 3.2
-638.018 417.646 0
-563.107 461.966 3.2
-563.107 461.966 0
-563.107 461.966 0
-563.107 461.966 3.2
-524.404 531.26 3.2
-563.107 461.966 0
-524.404 531.26 3.2
-524.404 531.26 0
-524.404 531.26 0
-524.404 531.26 3.2
-378.952 604.923 3.2
-524.404 531.26 0
-378.952 604.923 3.2
-378.952 604.923 0
-378.952 604.923 0
-378.952 604.923 3.2
-434.513 798.439 3.2
-378.952 604.923 0
-434.513 798.439 3.2
-434.513 798.439 0
-434.513 798.439 0
-434.513 798.439 3.2
-503.18 834.023 3.2
-434.513 798.439 0
-503.18 834.023 3.2
-503.18 834.023 0
-503.18 834.023 0
-503.18 834.023 3.2
-546.25 935.154 3.2
-503.18 834.023 0
-546.25 935.154 3.2
-546.25 935.154 0
-546.25 935.154 0
-546.25 935.154 3.2
-623.036 1068.12 3.2
-546.25 935.154 0
-623.036 1068.12 3.2
-623.036 1068.12 0
-25.624 -33.065 0
-25.624 -33.065 3.2
-6.894 -45.55 3.2
-25.624 -33.065 0
-6.894 -45.55 3.2
-6.894 -45.55 0
-6.894 -45.55 0
-6.894 -45.55 3.2
-52.464 -48.671 3.2
-6.894 -45.55 0
-52.464 -48.671 3.2
-52.464 -48.671 0
-52.464 -48.671 0
-52.464 -48.671 3.2
-29.367 -76.139 3.2
-52.464 -48.671 0
-29.367 -76.139 3.2
-29.367 -76.139 0
-29.367 -76.139 0
-29.367 -76.139 3.2
-47.471 -129.2 3.2
-29.367 -76.139 0
-47.471 -129.2 3.2
-47.471 -129.2 0
-47.471 -129.2 0
-47.471 -129.2 3.2
-29.367 -132.32 3.2
-47.471 -129.2 0
-29.367 -132.32 3.2
-29.367 -132.32 0
-29.367 -132.32 0
-29.367 -132.32 3.2
8.087 -59.284 3.2
-29.367 -132.32 0
8.087 -59.284 3.2
8.087 -59.284 0
8.087 -59.284 0
8.087 -59.284 3.2
13.082 -47.423 3.2
8.087 -59.284 0
13.082 -47.423 3.2
13.082 -47.423 0
13.082 -47.423 0
13.082 -47.423 3.2
59.899 -90.496 3.2
13.082 -47.423 0
59.899 -90.496 3.2
59.899 -90.496 0
59.899 -90.496 0
59.899 -90.496 3.2
111.915 -92.994 3.2
59.899 -90.496 0
111.915 -92.994 3.2
111.915 -92.994 0
111.915 -92.994 0
111.915 -92.994 3.2
202.854 -129.2 3.2
111.915 -92.994 0
202.854 -129.2 3.2
202.854 -129.2 0
202.854 -129.2 0
202.854 -129.2 3.2
187.248 -166.031 3.2
202.854 -129.2 0
187.248 -166.031 3.2
187.248 -166.031 0
187.248 -166.031 0
187.248 -166.031 3.2
184.267 -202.239 3.2
187.248 -166.031 0
184.267 -202.239 3.2
184.267 -202.239 0
184.267 -202.239 0
184.267 -202.239 3.2
141.677 -179.142 3.2
184.267 -202.239 0
141.677 -179.142 3.2
141.677 -179.142 0
141.677 -179.142 0
141.677 -179.142 3.2
137.931 -147.927 3.2
141.677 -179.142 0
137.931 -147.927 3.2
137.931 -147.927 0
137.931 -147.927 0
137.931 -147.927 3.2
109.219 -118.587 3.2
137.931 -147.927 0
109.219 -118.587 3.2
109.219 -118.587 0
109.219 -118.587 0
109.219 -118.587 3.2
97.98 -141.686 3.2
109.219 -118.587 0
97.98 -141.686 3.2
97.98 -141.686 0
97.98 -141.686 0
97.98 -141.686 3.2
54.906 -129.824 3.2
97.98 -141.686 0
54.906 -129.824 3.2
54.906 -129.824 0
54.906 -129.824 0
54.906 -129.824 3.2
42.421 -173.522 3.2
54.906 -129.824 0
42.421 -173.522 3.2
42.421 -173.522 0
42.421 -173.522 0
42.421 -173.522 3.2
88.616 -188.505 3.2
42.421 -173.522 0
88.616 -188.505 3.2
88.616 -188.505 0
88.616 -188.505 0
88.616 -188.505 3.2
137.931 -243.438 3.2
88.616 -188.505 0
137.931 -243.438 3.2
137.931 -243.438 0
137.931 -243.438 0
137.931 -243.438 3.2
215.341 -243.438 3.2
137.931 -243.438 0
215.341 -243.438 3.2
215.341 -243.438 0
215.341 -243.438 0
215.341 -243.438 3.2
282.135 -92.369 3.2
215.341 -243.438 0
282.135 -92.369 3.2
282.135 -92.369 0
282.135 -92.369 0
282.135 -92.369 3.2
300.239 -7.472 3.2
282.135 -92.369 0
300.239 -7.472 3.2
300.239 -7.472 0
300.239 -7.472 0
300.239 -7.472 3.2
254.044 -9.968 3.2
300.239 -7.472 0
254.044 -9.968 3.2
254.044 -9.968 0
254.044 -9.968 0
254.044 -9.968 3.2
251.548 59.323 3.2
254.044 -9.968 0
251.548 59.323 3.2
251.548 59.323 0
251.548 59.323 0
251.548 59.323 3.2
205.976 65.567 3.2
251.548 59.323 0
205.976 65.567 3.2
205.976 65.567 0
205.976 65.567 0
205.976 65.567 3.2
190.995 109.266 3.2
205.976 65.567 0
190.995 109.266 3.2
190.995 109.266 0
190.995 109.266 0
190.995 109.266 3.2
132.938 6.888 3.2
190.995 109.266 0
132.938 6.888 3.2
132.938 6.888 0
132.938 6.888 0
132.938 6.888 3.2
107.967 14.377 3.2
132.938 6.888 0
107.967 14.377 3.2
107.967 14.377 0
107.967 14.377 0
107.967 14.377 3.2
152.916 72.433 3.2
107.967 14.377 0
152.916 72.433 3.2
152.916 72.433 0
152.916 72.433 0
152.916 72.433 3.2
111.915 94.908 3.2
152.916 72.433 0
111.915 94.908 3.2
111.915 94.908 0
111.915 94.908 0
111.915 94.908 3.2
126.696 66.816 3.2
111.915 94.908 0
126.696 66.816 3.2
126.696 66.816 0
126.696 66.816 0
126.696 66.816 3.2
61.149 33.105 3.2
126.696 66.816 0
61.149 33.105 3.2
61.149 33.105 0
61.149 33.105 0
61.149 33.105 3.2
39.3 44.343 3.2
61.149 33.105 0
39.3 44.343 3.2
39.3 44.343 0
39.3 44.343 0
39.3 44.343 3.2
8.087 50.585 3.2
39.3 44.343 0
8.087 50.585 3.2
8.087 50.585 0
8.087 50.585 0
8.087 50.585 3.2
-46.845 114.885 3.2
8.087 50.585 0
-46.845 114.885 3.2
-46.845 114.885 0
-46.845 114.885 0
-46.845 114.885 3.2
-103.031 98.028 3.2
-46.845 114.885 0
-103.031 98.028 3.2
-103.031 98.028 0
-103.031 98.028 0
-103.031 98.028 3.2
-94.29 21.87 3.2
-103.031 98.028 0
-94.29 21.87 3.2
-94.29 21.87 0
-94.29 21.87 0
-94.29 21.87 3.2
-26.87 38.101 3.2
-94.29 21.87 0
-26.87 38.101 3.2
-26.87 38.101 0
-26.87 38.101 0
-26.87 38.101 3.2
-26.87 0.645 3.2
-26.87 38.101 0
-26.87 0.645 3.2
-26.87 0.645 0
-26.87 0.645 0
-26.87 0.645 3.2
-50.593 -15.585 3.2
-26.87 0.645 0
-50.593 -15.585 3.2
-50.593 -15.585 0
-50.593 -15.585 0
-50.593 -15.585 3.2
-25.624 -33.065 3.2
-50.593 -15.585 0
-25.624 -33.065 3.2
-25.624 -33.065 0
167.553 188.381 0
167.553 188.381 3.2
111.915 114.885 3.2
167.553 188.381 0
111.915 114.885 3.2
111.915 114.885 0
111.915 114.885 0
111.915 114.885 3.2
-61.679 130.03 3.2
111.915 114.885 0
-61.679 130.03 3.2
-61.679 130.03 0
-61.679 130.03 0
-61.679 130.03 3.2
-197.132 282.156 3.2
-61.679 130.03 0
-197.132 282.156 3.2
-197.132 282.156 0
-197.132 282.156 0
-197.132 282.156 3.2
-197.132 381.438 3.2
-197.132 282.156 0
-197.132 381.438 3.2
-197.132 381.438 0
-197.132 381.438 0
-197.132 381.438 3.2
-103.031 488.465 3.2
-197.132 381.438 0
-103.031 488.465 3.2
-103.031 488.465 0
-103.031 488.465 0
-103.031 488.465 3.2
11.259 459.291 3.2
-103.031 488.465 0
11.259 459.291 3.2
11.259 459.291 0
11.259 459.291 0
11.259 459.291 3.2
84.196 488.465 3.2
11.259 459.291 0
84.196 488.465 3.2
84.196 488.465 0
84.196 488.465 0
84.196 488.465 3.2
138.379 661.43 3.2
84.196 488.465 0
138.379 661.43 3.2
138.379 661.43 0
138.379 661.43 0
138.379 661.43 3.2
98.604 730.199 3.2
138.379 661.43 0
98.604 730.199 3.2
98.604 730.199 0
98.604 730.199 0
98.604 730.199 3.2
171.723 930.258 3.2
98.604 730.199 0
171.723 930.258 3.2
171.723 930.258 0
171.723 930.258 0
171.723 930.258 3.2
278 894.83 3.2
171.723 930.258 0
278 894.83 3.2
278 894.83 0
278 894.83 0
278 894.83 3.2
321.762 765.627 3.2
278 894.83 0
321.762 765.627 3.2
321.762 765.627 0
321.762 765.627 0
321.762 765.627 3.2
400.952 701.024 3.2
321.762 765.627 0
400.952 701.024 3.2
400.952 701.024 0
400.952 701.024 0
400.952 701.024 3.2
365.526 592.659 3.2
400.952 701.024 0
365.526 592.659 3.2
365.526 592.659 0
365.526 592.659 0
365.526 592.659 3.2
467.636 492.632 3.2
365.526 592.659 0
467.636 492.632 3.2
467.636 492.632 0
467.636 492.632 0
467.636 492.632 3.2
509.316 404.218 3.2
467.636 492.632 0
509.316 404.218 3.2
509.316 404.218 0
509.316 404.218 0
509.316 404.218 3.2
430.128 423.864 3.2
509.316 404.218 0
430.128 423.864 3.2
430.128 423.864 0
430.128 423.864 0
430.128 423.864 3.2
311.343 205.052 3.2
430.128 423.864 0
311.343 205.052 3.2
311.343 205.052 0
311.343 205.052 0
311.343 205.052 3.2
300.239 184.213 3.2
311.343 205.052 0
300.239 184.213 3.2
300.239 184.213 0
300.239 184.213 0
300.239 184.213 3.2
167.553 188.381 3.2
300.239 184.213 0
167.553 188.381 3.2
167.553 188.381 0
485.544 683.531 0
485.544 683.531 3.2
437.809 717.228 3.2
485.544 683.531 0
437.809 717.228 3.2
437.809 717.228 0
437.809 717.228 0
437.809 717.228 3.2
409.727 793.047 3.2
437.809 717.228 0
409.727 793.047 3.2
409.727 793.047 0
409.727 793.047 0
409.727 793.047 3.2
419.552 826.744 3.2
409.727 793.047 0
419.552 826.744 3.2
419.552 826.744 0
419.552 826.744 0
419.552 826.744 3.2
456.061 819.723 3.2
419.552 826.744 0
456.061 819.723 3.2
456.061 819.723 0
456.061 819.723 0
456.061 819.723 3.2
485.544 683.531 3.2
456.061 819.723 0
485.544 683.531 3.2
485.544 683.531 0
485.544 683.531 0
485.544 683.531 3.2
437.809 717.228 3.2
485.544 683.531 0
437.809 717.228 3.2
437.809 717.228 0
437.809 717.228 0
437.809 717.228 3.2
409.727 793.047 3.2
437.809 717.228 0
409.727 793.047 3.2
409.727 793.047 0
409.727 793.047 0
409.727 793.047 3.2
419.552 826.744 3.2
409.727 793.047 0
419.552 826.744 3.2
419.552 826.744 0
419.552 826.744 0
419.552 826.744 3.2
456.061 819.723 3.2
419.552 826.744 0
456.061 819.723 3.2
456.061 819.723 0
456.061 819.723 0
456.061 819.723 3.2
485.544 683.531 3.2
456.061 819.723 0
485.544 683.531 3.2
485.544 683.531 0
435.468 381.194 0
435.468 381.194 3.2
532.814 344.221 3.2
435.468 381.194 0
532.814 344.221 3.2
532.814 344.221 0
532.814 344.221 0
532.814 344.221 3.2
579.618 279.167 3.2
532.814 344.221 0
579.618 279.167 3.2
579.618 279.167 0
579.618 279.167 0
579.618 279.167 3.2
500.521 260.446 3.2
579.618 279.167 0
500.521 260.446 3.2
500.521 260.446 0
500.521 260.446 0
500.521 260.446 3.2
463.083 180.417 3.2
500.521 260.446 0
463.083 180.417 3.2
463.083 180.417 0
463.083 180.417 0
463.083 180.417 3.2
527.201 230.492 3.2
463.083 180.417 0
527.201 230.492 3.2
527.201 230.492 0
527.201 230.492 0
527.201 230.492 3.2
614.251 233.302 3.2
527.201 230.492 0
614.251 233.302 3.2
614.251 233.302 0
614.251 233.302 0
614.251 233.302 3.2
692.878 288.528 3.2
614.251 233.302 0
692.878 288.528 3.2
692.878 288.528 0
692.878 288.528 0
692.878 288.528 3.2
775.718 433.144 3.2
692.878 288.528 0
775.718 433.144 3.2
775.718 433.144 0
775.718 433.144 0
775.718 433.144 3.2
790.223 346.562 3.2
775.718 433.144 0
790.223 346.562 3.2
790.223 346.562 0
790.223 346.562 0
790.223 346.562 3.2
873.529 277.763 3.2
790.223 346.562 0
873.529 277.763 3.2
873.529 277.763 0
873.529 277.763 0
873.529 277.763 3.2
952.624 344.221 3.2
873.529 277.763 0
952.624 344.221 3.2
952.624 344.221 0
952.624 344.221 0
952.624 344.221 3.2
990.532 471.051 3.2
952.624 344.221 0
990.532 471.051 3.2
990.532 471.051 0
990.532 471.051 0
990.532 471.051 3.2
1037.8 514.111 3.2
990.532 471.051 0
1037.8 514.111 3.2
1037.8 514.111 0
1037.8 514.111 0
1037.8 514.111 3.2
998.487 384.469 3.2
1037.8 514.111 0
998.487 384.469 3.2
998.487 384.469 0
998.487 384.469 0
998.487 384.469 3.2
1049.97 418.635 3.2
998.487 384.469 0
1049.97 418.635 3.2
1049.97 418.635 0
1049.97 418.635 0
1049.97 418.635 3.2
1082.73 400.381 3.2
1049.97 418.635 0
1082.73 400.381 3.2
1082.73 400.381 0
1082.73 400.381 0
1082.73 400.381 3.2
1052.31 293.675 3.2
1082.73 400.381 0
1052.31 293.675 3.2
1052.31 293.675 0
1052.31 293.675 0
1052.31 293.675 3.2
1149.66 257.64 3.2
1052.31 293.675 0
1149.66 257.64 3.2
1149.66 257.64 0
1149.66 257.64 0
1149.66 257.64 3.2
1155.27 145.784 3.2
1149.66 257.64 0
1155.27 145.784 3.2
1155.27 145.784 0
1155.27 145.784 0
1155.27 145.784 3.2
1118.77 77.454 3.2
1155.27 145.784 0
1118.77 77.454 3.2
1118.77 77.454 0
1118.77 77.454 0
1118.77 77.454 3.2
1215.18 125.19 3.2
1118.77 77.454 0
1215.18 125.19 3.2
1215.18 125.19 0
1215.18 125.19 0
1215.18 125.19 3.2
1187.57 70.902 3.2
1215.18 125.19 0
1187.57 70.902 3.2
1187.57 70.902 0
1187.57 70.902 0
1187.57 70.902 3.2
1227.35 32.992 3.2
1187.57 70.902 0
1227.35 32.992 3.2
1227.35 32.992 0
1227.35 32.992 0
1227.35 32.992 3.2
1236.24 -26.446 3.2
1227.35 32.992 0
1236.24 -26.446 3.2
1236.24 -26.446 0
1236.24 -26.446 0
1236.24 -26.446 3.2
1155.27 -88.692 3.2
1236.24 -26.446 0
1155.27 -88.692 3.2
1155.27 -88.692 0
1155.27 -88.692 0
1155.27 -88.692 3.2
1163.23 -139.704 3.2
1155.27 -88.692 0
1163.23 -139.704 3.2
1163.23 -139.704 0
1163.23 -139.704 0
1163.23 -139.704 3.2
1281.64 -175.743 3.2
1163.23 -139.704 0
1281.64 -175.743 3.2
1281.64 -175.743 0
1281.64 -175.743 0
1281.64 -175.743 3.2
1364.48 -50.314 3.2
1281.64 -175.743 0
1364.48 -50.314 3.2
1364.48 -50.314 0
1364.48 -50.314 0
1364.48 -50.314 3.2
1355.12 -154.214 3.2
1364.48 -50.314 0
1355.12 -154.214 3.2
1355.12 -154.214 0
1355.12 -154.214 0
1355.12 -154.214 3.2
1444.97 -197.739 3.2
1355.12 -154.214 0
1444.97 -197.739 3.2
1444.97 -197.739 0
1444.97 -197.739 0
1444.97 -197.739 3.2
1255.9 -248.752 3.2
1444.97 -197.739 0
1255.9 -248.752 3.2
1255.9 -248.752 0
1255.9 -248.752 0
1255.9 -248.752 3.2
952.157 -257.645 3.2
1255.9 -248.752 0
952.157 -257.645 3.2
952.157 -257.645 0
952.157 -257.645 0
952.157 -257.645 3.2
734.062 -325.505 3.2
952.157 -257.645 0
734.062 -325.505 3.2
734.062 -325.505 0
734.062 -325.505 0
734.062 -325.505 3.2
316.128 -203.354 3.2
734.062 -325.505 0
316.128 -203.354 3.2
316.128 -203.354 0
316.128 -203.354 0
316.128 -203.354 3.2
267.92 -243.438 3.2
316.128 -203.354 0
267.92 -243.438 3.2
267.92 -243.438 0
267.92 -243.438 0
267.92 -243.438 3.2
219.245 -243.438 3.2
267.92 -243.438 0
219.245 -243.438 3.2
219.245 -243.438 0
219.245 -243.438 0
219.245 -243.438 3.2
285.236 -93.371 3.2
219.245 -243.438 0
285.236 -93.371 3.2
285.236 -93.371 0
285.236 -93.371 0
285.236 -93.371 3.2
303.018 -8.661 3.2
285.236 -93.371 0
303.018 -8.661 3.2
303.018 -8.661 0
303.018 -8.661 0
303.018 -8.661 3.2
339.523 -8.661 3.2
303.018 -8.661 0
339.523 -8.661 3.2
339.523 -8.661 0
339.523 -8.661 0
339.523 -8.661 3.2
342.332 21.761 3.2
339.523 -8.661 0
342.332 21.761 3.2
342.332 21.761 0
342.332 21.761 0
342.332 21.761 3.2
381.646 40.948 3.2
342.332 21.761 0
381.646 40.948 3.2
381.646 40.948 0
381.646 40.948 0
381.646 40.948 3.2
374.159 54.987 3.2
381.646 40.948 0
374.159 54.987 3.2
374.159 54.987 0
374.159 54.987 0
374.159 54.987 3.2
294.129 50.775 3.2
374.159 54.987 0
294.129 50.775 3.2
294.129 50.775 0
294.129 50.775 0
294.129 50.775 3.2
235.627 74.178 3.2
294.129 50.775 0
235.627 74.178 3.2
235.627 74.178 0
235.627 74.178 0
235.627 74.178 3.2
267.453 125.19 3.2
235.627 74.178 0
267.453 125.19 3.2
267.453 125.19 0
267.453 125.19 0
267.453 125.19 3.2
322.676 111.149 3.2
267.453 125.19 0
322.676 111.149 3.2
322.676 111.149 0
322.676 111.149 0
322.676 111.149 3.2
303.957 183.224 3.2
322.676 111.149 0
303.957 183.224 3.2
303.957 183.224 0
303.957 183.224 0
303.957 183.224 3.2
317.998 210.839 3.2
303.957 183.224 0
317.998 210.839 3.2
317.998 210.839 0
317.998 210.839 0
317.998 210.839 3.2
435.468 381.194 3.2
317.998 210.839 0
435.468 381.194 3.2
435.468 381.194 0
1313.93 43.288 0
1313.93 43.288 3.2
1285.85 19.42 3.2
1313.93 43.288 0
1285.85 19.42 3.2
1285.85 19.42 0
1285.85 19.42 0
1285.85 19.42 3.2
1301.29 94.304 3.2
1285.85 19.42 0
1301.29 94.304 3.2
1301.29 94.304 0
1301.29 94.304 0
1301.29 94.304 3.2
1245.13 126.127 3.2
1301.29 94.304 0
1245.13 126.127 3.2
1245.13 126.127 0
1245.13 126.127 0
1245.13 126.127 3.2
1252.15 166.844 3.2
1245.13 126.127 0
1252.15 166.844 3.2
1252.15 166.844 0
1252.15 166.844 0
1252.15 166.844 3.2
1273.21 138.763 3.2
1252.15 166.844 0
1273.21 138.763 3.2
1273.21 138.763 0
1273.21 138.763 0
1273.21 138.763 3.2
1327.97 114.885 3.2
1273.21 138.763 0
1327.97 114.885 3.2
1327.97 114.885 0
1327.97 114.885 0
1327.97 114.885 3.2
1313.93 43.288 3.2
1327.97 114.885 0
1313.93 43.288 3.2
1313.93 43.288 0
1259.17 404.218 0
1259.17 404.218 3.2
1220.56 360.601 3.2
1259.17 404.218 0
1220.56 360.601 3.2
1220.56 360.601 0
1220.56 360.601 0
1220.56 360.601 3.2
1211.43 308.651 3.2
1220.56 360.601 0
1211.43 308.651 3.2
1211.43 308.651 0
1211.43 308.651 0
1211.43 308.651 3.2
1181.95 367.622 3.2
1211.43 308.651 0
1181.95 367.622 3.2
1181.95 367.622 0
1181.95 367.622 0
1181.95 367.622 3.2
1219.85 395.702 3.2
1181.95 367.622 0
1219.85 395.702 3.2
1219.85 395.702 0
1219.85 395.702 0
1219.85 395.702 3.2
1225.47 438.218 3.2
1219.85 395.702 0
1225.47 438.218 3.2
1225.47 438.218 0
1225.47 438.218 0
1225.47 438.218 3.2
1259.17 463.097 3.2
1225.47 438.218 0
1259.17 463.097 3.2
1259.17 463.097 0
1259.17 463.097 0
1259.17 463.097 3.2
1259.17 404.218 3.2
1259.17 463.097 0
1259.17 404.218 3.2
1259.17 404.218 0
1181.95 522.571 0
1181.95 522.571 3.2
1152.46 581.036 3.2
1181.95 522.571 0
1152.46 581.036 3.2
1152.46 581.036 0
1152.46 581.036 0
1152.46 581.036 3.2
1108.94 568.401 3.2
1152.46 581.036 0
1108.94 568.401 3.2
1108.94 568.401 0
1108.94 568.401 0
1108.94 568.401 3.2
1093.49 505.218 3.2
1108.94 568.401 0
1093.49 505.218 3.2
1093.49 505.218 0
1093.49 505.218 0
1093.49 505.218 3.2
1174.93 454.673 3.2
1093.49 505.218 0
1174.93 454.673 3.2
1174.93 454.673 0
1174.93 454.673 0
1174.93 454.673 3.2
1181.95 522.571 3.2
1174.93 454.673 0
1181.95 522.571 3.2
1181.95 522.571 0
1205.82 647.025 0
1205.82 647.025 3.2
1059.8 581.036 3.2
1205.82 647.025 0
1059.8 581.036 3.2
1059.8 581.036 0
1059.8 581.036 0
1059.8 581.036 3.2
941.857 482.754 3.2
1059.8 581.036 0
941.857 482.754 3.2
941.857 482.754 0
941.857 482.754 0
941.857 482.754 3.2
1035.93 613.329 3.2
941.857 482.754 0
1035.93 613.329 3.2
1035.93 613.329 0
1035.93 613.329 0
1035.93 613.329 3.2
1205.82 647.025 3.2
1035.93 613.329 0
1205.82 647.025 3.2
1205.82 647.025 0
1500.67 846.398 0
1500.67 846.398 3.2
1412.21 662.471 3.2
1500.67 846.398 0
1412.21 662.471 3.2
1412.21 662.471 0
1412.21 662.471 0
1412.21 662.471 3.2
1375.7 718.633 3.2
1412.21 662.471 0
1375.7 718.633 3.2
1375.7 718.633 0
1375.7 718.633 0
1375.7 718.633 3.2
1360.26 683.531 3.2
1375.7 718.633 0
1360.26 683.531 3.2
1360.26 683.531 0
1360.26 683.531 0
1360.26 683.531 3.2
1259.17 683.531 3.2
1360.26 683.531 0
1259.17 683.531 3.2
1259.17 683.531 0
1259.17 683.531 0
1259.17 683.531 3.2
1205.82 749.521 3.2
1259.17 683.531 0
1205.82 749.521 3.2
1205.82 749.521 0
1205.82 749.521 0
1205.82 749.521 3.2
1110.34 787.43 3.2
1205.82 749.521 0
1110.34 787.43 3.2
1110.34 787.43 0
1110.34 787.43 0
1110.34 787.43 3.2
1110.34 895.543 3.2
1110.34 787.43 0
1110.34 895.543 3.2
1110.34 895.543 0
1110.34 895.543 0
1110.34 895.543 3.2
1086.48 940.471 3.2
1110.34 895.543 0
1086.48 940.471 3.2
1086.48 940.471 0
1086.48 940.471 0
1086.48 940.471 3.2
1302.69 903.967 3.2
1086.48 940.471 0
1302.69 903.967 3.2
1302.69 903.967 0
1302.69 903.967 0
1302.69 903.967 3.2
1318.14 972.766 3.2
1302.69 903.967 0
1318.14 972.766 3.2
1318.14 972.766 0
1318.14 972.766 0
1318.14 972.766 3.2
1403.79 979.783 3.2
1318.14 972.766 0
1403.79 979.783 3.2
1403.79 979.783 0
1403.79 979.783 0
1403.79 979.783 3.2
1500.67 846.398 3.2
1403.79 979.783 0
1500.67 846.398 3.2
1500.67 846.398 0
1500.67 647.025 0
1500.67 647.025 3.2
1451.53 581.036 3.2
1500.67 647.025 0
1451.53 581.036 3.2
1451.53 581.036 0
1451.53 581.036 0
1451.53 581.036 3.2
1375.7 555.765 3.2
1451.53 581.036 0
1375.7 555.765 3.2
1375.7 555.765 0
1375.7 555.765 0
1375.7 555.765 3.2
1391.15 616.138 3.2
1375.7 555.765 0
1391.15 616.138 3.2
1391.15 616.138 0
1391.15 616.138 0
1391.15 616.138 3.2
1424.85 647.025 3.2
1391.15 616.138 0
1424.85 647.025 3.2
1424.85 647.025 0
1424.85 647.025 0
1424.85 647.025 3.2
1444.97 614.731 3.2
1424.85 647.025 0
1444.97 614.731 3.2
1444.97 614.731 0
1444.97 614.731 0
1444.97 614.731 3.2
1500.67 647.025 3.2
1444.97 614.731 0
1500.67 647.025 3.2
1500.67 647.025 0
3 0 1 2
3 3 4 5
3 6 7 8
3 9 10 11
3 12 13 14
3 15 16 17
3 18 19 20
3 21 22 23
3 24 25 26
3 27 28 29
3 30 31 32
3 33 34 35
3 36 37 38
3 39 40 41
3 42 43 44
3 45 46 47
3 48 49 50
3 51 52 53
3 54 55 56
3 57 58 59
3 60 61 62
3 63 64 65
3 66 67 68
3 69 70 71
3 72 73 74
3 75 76 77
3 78 79 80
3 81 82 83
3 84 85 86
3 87 88 89
3 90 91 92
3 93 94 95
3 96 97 98
3 99 100 101
3 102 103 104
3 105 106 107
3 108 109 110
3 111 112 113
3 114 115 116
3 117 118 119
3 120 121 122
3 123 124 125
3 126 127 128
3 129 130 131
3 132 133 134
3 135 136 137
3 138 139 140
3 141 142 143
3 144 145 146
3 147 148 149
3 150 151 152
3 153 154 155
3 156 157 158
3 159 160 161
3 162 163 164
3 165 166 167
3 168 169 170
3 171 172 173
3 174 175 176
3 177 178 179
3 180 181 182
3 183 184 185
3 186 187 188
3 189 190 191
3 192 193 194
3 195 196 197
3 198 199 200
3 201 202 203
3 204 205 206
3 207 208 209
3 210 211 212
3 213 214 215
3 216 217 218
3 219 220 221
3 222 223 224
3 225 226 227
3 228 229 230
3 231 232 233
3 234 235 236
3 237 238 239
3 240 241 242
3 243 244 245
3 246 247 248
3 249 250 251
3 252 253 254
3 255 256 257
3 258 259 260
3 261 262 263
3 264 265 266
3 267 268 269
3 270 271 272
3 273 274 275
3 276 277 278
3 279 280 281
3 282 283 284
3 285 286 287
3 288 289 290
3 291 292 293
3 294 295 296
3 297 298 299
3 300 301 302
3 303 304 305
3 306 307 308
3 309 310 311
3 312 313 314
3 315 316 317
3 318 319 320
3 321 322 323
3 324 325 326
3 327 328 329
3 330 331 332
3 333 334 335
3 336 337 338
3 339 340 341
3 342 343 344
3 345 346 347
3 348 349 350
3 351 352 353
3 354 355 356
3 357 358 359
3 360 361 362
3 363 364 365
3 366 367 368
3 369 370 371
3 372 373 374
3 375 376 377
3 378 379 380
3 381 382 383
3 384 385 386
3 387 388 389
3 390 391 392
3 393 394 395
3 396 397 398
3 399 400 401
3 402 403 404
3 405 406 407
3 408 409 410
3 411 412 413
3 414 415 416
3 417 418 419
3 420 421 422
3 423 424 425
3 426 427 428
3 429 430 431
3 432 433 434
3 435 436 437
3 438 439 440
3 441 442 443
3 444 445 446
3 447 448 449
3 450 451 452
3 453 454 455
3 456 457 458
3 459 460 461
3 462 463 464
3 465 466 467
3 468 469 470
3 471 472 473
3 474 475 476
3 477 478 479
3 480 481 482
3 483 484 485
3 486 487 488
3 489 490 491
3 492 493 494
3 495 496 497
3 498 499 500
3 501 502 503
3 504 505 506
3 507 508 509
3 510 511 512
3 513 514 515
3 516 517 518
3 519 520 521
3 522 523 524
3 525 526 527
3 528 529 530
3 531 532 533
3 534 535 536
3 537 538 539
3 540 541 542
3 543 544 545
3 546 547 548
3 549 550 551
3 552 553 554
3 555 556 557
3 558 559 560
3 561 562 563
3 564 565 566
3 567 568 569
3 570 571 572
3 573 574 575
3 576 577 578
3 579 580 581
3 582 583 584
3 585 586 587
3 588 589 590
3 591 592 593
3 594 595 596
3 597 598 599
3 600 601 602
3 603 604 605
3 606 607 608
3 609 610 611
3 612 613 614
3 615 616 617
3 618 619 620
3 621 622 623
3 624 625 626
3 627 628 629
3 630 631 632
3 633 634 635
3 636 637 638
3 639 640 641
3 642 643 644
3 645 646 647
3 648 649 650
3 651 652 653
3 654 655 656
3 657 658 659
3 660 661 662
3 663 664 665
3 666 667 668
3 669 670 671
3 672 673 674
3 675 676 677
3 678 679 680
3 681 682 683
3 684 685 686
3 687 688 689
3 690 691 692
3 693 694 695
3 696 697 698
3 699 700 701
3 702 703 704
3 705 706 707
3 708 709 710
3 711 712 713
3 714 715 716
3 717 718 719
3 720 721 722
3 723 724 725
3 726 727 728
3 729 730 731
3 732 733 734
3 735 736 737
3 738 739 740
3 741 742 743
3 744 745 746
3 747 748 749
3 750 751 752
3 753 754 755
3 756 757 758
3 759 760 761
3 762 763 764
3 765 766 767
3 768 769 770
3 771 772 773
3 774 775 776
3 777 778 779
3 780 781 782
3 783 784 785
3 786 787 788
3 789 790 791
3 792 793 794
3 795 796 797
3 798 799 800
3 801 802 803
3 804 805 806
3 807 808 809
3 810 811 812
3 813 814 815
3 816 817 818
3 819 820 821
3 822 823 824
3 825 826 827
3 828 829 830
3 831 832 833
3 834 835 836
3 837 838 839
3 840 841 842
3 843 844 845
3 846 847 848
3 849 850 851
3 852 853 854
3 855 856 857
3 858 859 860
3 861 862 863
3 864 865 866
3 867 868 869
3 870 871 872
3 873 874 875
3 876 877 878
3 879 880 881
3 882 883 884
3 885 886 887
3 888 889 890
3 891 892 893
3 894 895 896
3 897 898 899
3 900 901 902
3 903 904 905
3 906 907 908
3 909 910 911
3 912 913 914
3 915 916 917
3 918 919 920
3 921 922 923
3 924 925 926
3 927 928 929
3 930 931 932
3 933 934 935
3 936 937 938
3 939 940 941
3 942 943 944
3 945 946 947
3 948 949 950
3 951 952 953
3 954 955 956
3 957 958 959
3 960 961 962
3 963 964 965
3 966 967 968
3 969 970 971
3 972 973 974
3 975 976 977
3 978 979 980
3 981 982 983
3 984 985 986
3 987 988 989
3 990 991 992
3 993 994 995
3 996 997 998
3 999 1000 1001
3 1002 1003 1004
3 1005 1006 1007
3 1008 1009 1010
3 1011 1012 1013
3 1014 1015 1016
3 1017 1018 1019
3 1020 1021 1022
3 1023 1024 1025
3 1026 1027 1028
3 1029 1030 1031
3 1032 1033 1034
3 1035 1036 1037
3 1038 1039 1040
3 1041 1042 1043
3 1044 1045 1046
3 1047 1048 1049
3 1050 1051 1052
3 1053 1054 1055
3 1056 1057 1058
3 1059 1060 1061
3 1062 1063 1064
3 1065 1066 1067
3 1068 1069 1070
3 1071 1072 1073
3 1074 1075 1076
3 1077 1078 1079
3 1080 1081 1082
3 1083 1084 1085
3 1086 1087 1088
3 1089 1090 1091
3 1092 1093 1094
3 1095 1096 1097
3 1098 1099 1100
3 1101 1102 1103
3 1104 1105 1106
3 1107 1108 1109
3 1110 1111 1112
3 1113 1114 1115
3 1116 1117 1118
3 1119 1120 1121
3 1122 1123 1124
3 1125 1126 1127
3 1128 1129 1130
3 1131 1132 1133
3 1134 1135 1136
3 1137 1138 1139
3 1140 1141 1142
3 1143 1144 1145
3 1146 1147 1148
3 1149 1150 1151
3 1152 1153 1154
3 1155 1156 1157
3 1158 1159 1160
3 1161 1162 1163
3 1164 1165 1166
3 1167 1168 1169
3 1170 1171 1172
3 1173 1174 1175
3 1176 1177 1178
3 1179 1180 1181
3 1182 1183 1184
3 1185 1186 1187
3 1188 1189 1190
3 1191 1192 1193
3 1194 1195 1196
3 1197 1198 1199
3 1200 1201 1202
3 1203 1204 1205
3 1206 1207 1208
3 1209 1210 1211
3 1212 1213 1214
3 1215 1216 1217
3 1218 1219 1220
3 1221 1222 1223
3 1224 1225 1226
3 1227 1228 1229
3 1230 1231 1232
3 1233 1234 1235
3 1236 1237 1238
3 1239 1240 1241
3 1242 1243 1244
3 1245 1246 1247
3 1248 1249 1250
3 1251 1252 1253
3 1254 1255 1256
3 1257 1258 1259
3 1260 1261 1262
3 1263 1264 1265
3 1266 1267 1268
3 1269 1270 1271
3 1272 1273 1274
3 1275 1276 1277
3 1278 1279 1280
3 1281 1282 1283
3 1284 1285 1286
3 1287 1288 1289
3 1290 1291 1292
3 1293 1294 1295
3 1296 1297 1298
3 1299 1300 1301
3 1302 1303 1304
3 1305 1306 1307
3 1308 1309 1310
3 1311 1312 1313
3 1314 1315 1316
3 1317 1318 1319
3 1320 1321 1322
3 1323 1324 1325
3 1326 1327 1328
3 1329 1330 1331
3 1332 1333 1334
3 1335 1336 1337
3 1338 1339 1340
3 1341 1342 1343
3 1344 1345 1346
3 1347 1348 1349
3 1350 1351 1352
3 1353 1354 1355
3 1356 1357 1358
3 1359 1360 1361
3 1362 1363 1364
3 1365 1366 1367
3 1368 1369 1370
3 1371 1372 1373
3 1374 1375 1376
3 1377 1378 1379
3 1380 1381 1382
3 1383 1384 1385
3 1386 1387 1388
3 1389 1390 1391
3 1392 1393 1394
3 1395 1396 1397
3 1398 1399 1400
3 1401 1402 1403
3 1404 1405 1406
3 1407 1408 1409
3 1410 1411 1412
3 1413 1414 1415
3 1416 1417 1418
3 1419 1420 1421
3 1422 1423 1424
3 1425 1426 1427
3 1428 1429 1430
3 1431 1432 1433
3 1434 1435 1436
3 1437 1438 1439
3 1440 1441 1442
3 1443 1444 1445
3 1446 1447 1448
3 1449 1450 1451
3 1452 1453 1454
3 1455 1456 1457
3 1458 1459 1460
3 1461 1462 1463
3 1464 1465 1466
3 1467 1468 1469
3 1470 1471 1472
3 1473 1474 1475
3 1476 1477 1478
3 1479 1480 1481
3 1482 1483 1484
3 1485 1486 1487
3 1488 1489 1490
3 1491 1492 1493
3 1494 1495 1496
3 1497 1498 1499
3 1500 1501 1502
3 1503 1504 1505
3 1506 1507 1508
3 1509 1510 1511
3 1512 1513 1514
3 1515 1516 1517
3 1518 1519 1520
3 1521 1522 1523
3 1524 1525 1526
3 1527 1528 1529
3 1530 1531 1532
3 1533 1534 1535
3 1536 1537 1538
3 1539 1540 1541
3 1542 1543 1544
3 1545 1546 1547
3 1548 1549 1550
3 1551 1552 1553
3 1554 1555 1556
3 1557 1558 1559
3 1560 1561 1562
3 1563 1564 1565
3 1566 1567 1568
3 1569 1570 1571
3 1572 1573 1574
3 1575 1576 1577
3 1578 1579 1580
3 1581 1582 1583
