ply
format ascii 1.0
element vertex 360
property float x
property float y
property float z
element face 120
property list uchar int vertex_indices
end_header
-25.624 -33.065 0
-25.624 -33.065 160
-6.894 -45.55 160
-25.624 -33.065 0
-6.894 -45.55 160
-6.894 -45.55 0
-6.894 -45.55 0
-6.894 -45.55 160
-52.464 -48.671 160
-6.894 -45.55 0
-52.464 -48.671 160
-52.464 -48.671 0
-52.464 -48.671 0
-52.464 -48.671 160
-29.367 -76.139 160
-52.464 -48.671 0
-29.367 -76.139 160
-29.367 -76.139 0
-29.367 -76.139 0
-29.367 -76.139 160
-47.471 -129.2 160
-29.367 -76.139 0
-47.471 -129.2 160
-47.471 -129.2 0
-47.471 -129.2 0
-47.471 -129.2 160
-29.367 -132.32 160
-47.471 -129.2 0
-29.367 -132.32 160
-29.367 -132.32 0
-29.367 -132.32 0
-29.367 -132.32 160
8.087 -59.284 160
-29.367 -132.32 0
8.087 -59.284 160
8.087 -59.284 0
8.087 -59.284 0
8.087 -59.284 160
13.082 -47.423 160
8.087 -59.284 0
13.082 -47.423 160
13.082 -47.423 0
13.082 -47.423 0
13.082 -47.423 160
59.899 -90.496 160
13.082 -47.423 0
59.899 -90.496 160
59.899 -90.496 0
59.899 -90.496 0
59.899 -90.496 160
111.915 -92.994 160
59.899 -90.496 0
111.915 -92.994 160
111.915 -92.994 0
111.915 -92.994 0
111.915 -92.994 160
202.854 -129.2 160
111.915 -92.994 0
202.854 -129.2 160
202.854 -129.2 0
202.854 -129.2 0
202.854 -129.2 160
187.248 -166.031 160
202.854 -129.2 0
187.248 -166.031 160
187.248 -166.031 0
187.248 -166.031 0
187.248 -166.031 160
184.267 -202.239 160
187.248 -166.031 0
184.267 -202.239 160
184.267 -202.239 0
184.267 -202.239 0
184.267 -202.239 160
141.677 -179.142 160
184.267 -202.239 0
141.677 -179.142 160
141.677 -179.142 0
141.677 -179.142 0
141.677 -179.142 160
137.931 -147.927 160
141.677 -179.142 0
137.931 -147.927 160
137.931 -147.927 0
137.931 -147.927 0
137.931 -147.927 160
109.219 -118.587 160
137.931 -147.927 0
109.219 -118.587 160
109.219 -118.587 0
109.219 -118.587 0
109.219 -118.587 160
97.98 -141.686 160
109.219 -118.587 0
97.98 -141.686 160
97.98 -141.686 0
97.98 -141.686 0
97.98 -141.686 160
54.906 -129.824 160
97.98 -141.686 0
54.906 -129.824 160
54.906 -129.824 0
54.906 -129.824 0
54.906 -129.824 160
42.421 -173.522 160
54.906 -129.824 0
42.421 -173.522 160
42.421 -173.522 0
42.421 -173.522 0
42.421 -173.522 160
88.616 -188.505 160
42.421 -173.522 0
88.616 -188.505 160
88.616 -188.505 0
88.616 -188.505 0
88.616 -188.505 160
137.931 -243.438 160
88.616 -188.505 0
137.931 -243.438 160
137.931 -243.438 0
137.931 -243.438 0
137.931 -243.438 160
215.341 -243.438 160
137.931 -243.438 0
215.341 -243.438 160
215.341 -243.438 0
215.341 -243.438 0
215.341 -243.438 160
282.135 -92.369 160
215.341 -243.438 0
282.135 -92.369 160
282.135 -92.369 0
282.135 -92.369 0
282.135 -92.369 160
300.239 -7.472 160
282.135 -92.369 0
300.239 -7.472 160
300.239 -7.472 0
300.239 -7.472 0
300.239 -7.472 160
254.044 -9.968 160
300.239 -7.472 0
254.044 -9.968 160
254.044 -9.968 0
254.044 -9.968 0
254.044 -9.968 160
251.548 59.323 160
254.044 -9.968 0
251.548 59.323 160
251.548 59.323 0
251.548 59.323 0
251.548 59.323 160
205.976 65.567 160
251.548 59.323 0
205.976 65.567 160
205.976 65.567 0
205.976 65.567 0
205.976 65.567 160
190.995 109.266 160
205.976 65.567 0
190.995 109.266 160
190.995 109.266 0
190.995 109.266 0
190.995 109.266 160
132.938 6.888 160
190.995 109.266 0
132.938 6.888 160
132.938 6.888 0
132.938 6.888 0
132.938 6.888 160
107.967 14.377 160
132.938 6.888 0
107.967 14.377 160
107.967 14.377 0
107.967 14.377 0
107.967 14.377 160
152.916 72.433 160
107.967 14.377 0
152.916 72.433 160
152.916 72.433 0
152.916 72.433 0
152.916 72.433 160
111.915 94.908 160
152.916 72.433 0
111.915 94.908 160
111.915 94.908 0
111.915 94.908 0
111.915 94.908 160
126.696 66.816 160
111.915 94.908 0
126.696 66.816 160
126.696 66.816 0
126.696 66.816 0
126.696 66.816 160
61.149 33.105 160
126.696 66.816 0
61.149 33.105 160
61.149 33.105 0
61.149 33.105 0
61.149 33.105 160
39.3 44.343 160
61.149 33.105 0
39.3 44.343 160
39.3 44.343 0
39.3 44.343 0
39.3 44.343 160
8.087 50.585 160
39.3 44.343 0
8.087 50.585 160
8.087 50.585 0
8.087 50.585 0
8.087 50.585 160
-46.845 114.885 160
8.087 50.585 0
-46.845 114.885 160
-46.845 114.885 0
-46.845 114.885 0
-46.845 114.885 160
-103.031 98.028 160
-46.845 114.885 0
-103.031 98.028 160
-103.031 98.028 0
-103.031 98.028 0
-103.031 98.028 160
-94.29 21.87 160
-103.031 98.028 0
-94.29 21.87 160
-94.29 21.87 0
-94.29 21.87 0
-94.29 21.87 160
-26.87 38.101 160
-94.29 21.87 0
-26.87 38.101 160
-26.87 38.101 0
-26.87 38.101 0
-26.87 38.101 160
-26.87 0.645 160
-26.87 38.101 0
-26.87 0.645 160
-26.87 0.645 0
-26.87 0.645 0
-26.87 0.645 160
-50.593 -15.585 160
-26.87 0.645 0
-50.593 -15.585 160
-50.593 -15.585 0
-50.593 -15.585 0
-50.593 -15.585 160
-25.624 -33.065 160
-50.593 -15.585 0
-25.624 -33.065 160
-25.624 -33.065 0
515.667 222.398 0
515.667 222.398 160
427.211 38.471 160
515.667 222.398 0
427.211 38.471 160
427.211 38.471 0
427.211 38.471 0
427.211 38.471 160
390.704 94.633 160
427.211 38.471 0
390.704 94.633 160
390.704 94.633 0
390.704 94.633 0
390.704 94.633 160
375.26 59.531 160
390.704 94.633 0
375.26 59.531 160
375.26 59.531 0
375.26 59.531 0
375.26 59.531 160
274.171 59.531 160
375.26 59.531 0
274.171 59.531 160
274.171 59.531 0
274.171 59.531 0
274.171 59.531 160
220.818 125.521 160
274.171 59.531 0
220.818 125.521 160
220.818 125.521 0
220.818 125.521 0
220.818 125.521 160
125.34 163.43 160
220.818 125.521 0
125.34 163.43 160
125.34 163.43 0
125.34 163.43 0
125.34 163.43 160
125.34 271.543 160
125.34 163.43 0
125.34 271.543 160
125.34 271.543 0
125.34 271.543 0
125.34 271.543 160
101.477 316.471 160
125.34 271.543 0
101.477 316.471 160
101.477 316.471 0
101.477 316.471 0
101.477 316.471 160
317.695 279.967 160
101.477 316.471 0
317.695 279.967 160
317.695 279.967 0
317.695 279.967 0
317.695 279.967 160
333.141 348.766 160
317.695 279.967 0
333.141 348.766 160
333.141 348.766 0
333.141 348.766 0
333.141 348.766 160
418.786 355.783 160
333.141 348.766 0
418.786 355.783 160
418.786 355.783 0
418.786 355.783 0
418.786 355.783 160
515.667 222.398 160
418.786 355.783 0
515.667 222.398 160
515.667 222.398 0
515.667 23.025 0
515.667 23.025 160
466.525 -42.964 160
515.667 23.025 0
466.525 -42.964 160
466.525 -42.964 0
466.525 -42.964 0
466.525 -42.964 160
390.704 -68.235 160
466.525 -42.964 0
390.704 -68.235 160
390.704 -68.235 0
390.704 -68.235 0
390.704 -68.235 160
406.148 -7.862 160
390.704 -68.235 0
406.148 -7.862 160
406.148 -7.862 0
406.148 -7.862 0
406.148 -7.862 160
439.848 23.025 160
406.148 -7.862 0
439.848 23.025 160
439.848 23.025 0
439.848 23.025 0
439.848 23.025 160
459.975 -9.269 160
439.848 23.025 0
459.975 -9.269 160
459.975 -9.269 0
459.975 -9.269 0
459.975 -9.269 160
515.667 23.025 160
459.975 -9.269 0
515.667 23.025 160
515.667 23.025 0
3 0 1 2
3 3 4 5
3 6 7 8
3 9 10 11
3 12 13 14
3 15 16 17
3 18 19 20
3 21 22 23
3 24 25 26
3 27 28 29
3 30 31 32
3 33 34 35
3 36 37 38
3 39 40 41
3 42 43 44
3 45 46 47
3 48 49 50
3 51 52 53
3 54 55 56
3 57 58 59
3 60 61 62
3 63 64 65
3 66 67 68
3 69 70 71
3 72 73 74
3 75 76 77
3 78 79 80
3 81 82 83
3 84 85 86
3 87 88 89
3 90 91 92
3 93 94 95
3 96 97 98
3 99 100 101
3 102 103 104
3 105 106 107
3 108 109 110
3 111 112 113
3 114 115 116
3 117 118 119
3 120 121 122
3 123 124 125
3 126 127 128
3 129 130 131
3 132 133 134
3 135 136 137
3 138 139 140
3 141 142 143
3 144 145 146
3 147 148 149
3 150 151 152
3 153 154 155
3 156 157 158
3 159 160 161
3 162 163 164
3 165 166 167
3 168 169 170
3 171 172 173
3 174 175 176
3 177 178 179
3 180 181 182
3 183 184 185
3 186 187 188
3 189 190 191
3 192 193 194
3 195 196 197
3 198 199 200
3 201 202 203
3 204 205 206
3 207 208 209
3 210 211 212
3 213 214 215
3 216 217 218
3 219 220 221
3 222 223 224
3 225 226 227
3 228 229 230
3 231 232 233
3 234 235 236
3 237 238 239
3 240 241 242
3 243 244 245
3 246 247 248
3 249 250 251
3 252 253 254
3 255 256 257
3 258 259 260
3 261 262 263
3 264 265 266
3 267 268 269
3 270 271 272
3 273 274 275
3 276 277 278
3 279 280 281
3 282 283 284
3 285 286 287
3 288 289 290
3 291 292 293
3 294 295 296
3 297 298 299
3 300 301 302
3 303 304 305
3 306 307 308
3 309 310 311
3 312 313 314
3 315 316 317
3 318 319 320
3 321 322 323
3 324 325 326
3 327 328 329
3 330 331 332
3 333 334 335
3 336 337 338
3 339 340 341
3 342 343 344
3 345 346 347
3 348 349 350
3 351 352 353
3 354 355 356
3 357 358 359
