ply
format ascii 1.0
element vertex 96
property float x
property float y
property float z
property uchar red
property uchar green
property uchar blue
property uchar alpha
element face 12
property list uchar int vertex_indices
end_header
-300 -20 70 255 0 0 255
300 -20 70 255 0 6 255
-300 20 70 255 0 6 255
300 20 70 255 0 6 255
-300 -20 -70 255 0 6 255
300 -20 -70 255 0 6 255
-300 20 -70 255 0 6 255
300 20 -70 255 0 6 255
0 1.4013e-45 2.8026e-45 255 0 6 255
2.8026e-45 1.4013e-45 4.2039e-45 255 0 6 255
0 1.4013e-45 5.60519e-45 255 0 6 255
5.60519e-45 7.00649e-45 1.4013e-45 255 0 6 255
1.4013e-45 7.00649e-45 4.2039e-45 255 0 6 255
9.80909e-45 7.00649e-45 4.2039e-45 255 0 6 255
5.60519e-45 7.00649e-45 8.40779e-45 255 0 6 255
7.00649e-45 8.40779e-45 9.80909e-45 255 0 6 255
2.8026e-45 8.40779e-45 9.80909e-45 255 0 6 255
2.8026e-45 9.80909e-45 4.2039e-45 255 0 6 255
2.8026e-45 5.60519e-45 8.40779e-45 255 0 6 255
0 2.8026e-45 5.60519e-45 255 0 6 255
0 0 1.00273e-38 255 0 6 255
1.60325e-40 1.60367e-40 -7.84679e-27 255 0 6 255
-7.84679e-27 -7.8468e-27 -7.84699e-27 255 0 6 255
-7.84719e-27 -7.8472e-27 1.59989e-40 255 0 6 255
1.60065e-40 1.60132e-40 1.60199e-40 255 0 6 255
-7.84736e-27 1.60244e-40 1.60297e-40 255 0 6 255
1.60311e-40 -2.64004e-19 8.13511e-39 255 0 6 255
-2.08524e-19 0 0 255 0 6 255
1.00275e-38 2.26478e-40 2.26492e-40 255 0 6 255
-7.84679e-27 -7.84679e-27 -7.8468e-27 255 0 6 255
-7.84699e-27 2.25895e-40 -7.8472e-27 255 0 6 255
-7.8472e-27 2.26004e-40 -7.84732e-27 255 0 6 255
-7.84736e-27 -7.84736e-27 2.25774e-40 255 0 6 255
2.25629e-40 2.25617e-40 -2.64004e-19 255 0 6 255
8.13529e-39 -2.08524e-19 0 255 0 6 255
0 1.00275e-38 2.52598e-40 255 0 6 255
2.52612e-40 -2.64004e-19 8.1354e-39 255 0 6 255
9.89734e-39 0 -2.63974e-19 255 0 6 255
9.23409e-39 0 1.00276e-38 255 0 6 255
2.88298e-40 2.88312e-40 -7.84679e-27 255 0 6 255
-7.84679e-27 -7.8468e-27 -7.84699e-27 255 0 6 255
2.87659e-40 -7.8472e-27 -7.8472e-27 255 0 6 255
2.879e-40 -7.84732e-27 -7.84736e-27 255 0 6 255
-7.84736e-27 2.87768e-40 2.87888e-40 255 0 6 255
2.87513e-40 -2.64004e-19 8.13547e-39 255 0 6 255
-2.08524e-19 8.15056e-39 8.15354e-39 255 0 6 255
3.27691e-40 3.2766e-40 3.27691e-40 255 0 6 255
3.2766e-40 0 0 255 0 6 255
0 8.15127e-39 8.15289e-39 255 0 6 255
3.60134e-43 4.00771e-43 2.10195e-44 255 0 6 255
0 0 0 255 0 6 255
8.15305e-39 8.15323e-39 0 255 0 6 255
4.2039e-44 2.10195e-44 0 255 0 6 255
0 0 0 255 0 6 255
8.1534e-39 0 2.66247e-44 255 0 6 255
9.80909e-45 -4.03887e-24 -4.03857e-24 255 0 6 255
0 0 1.0028e-38 255 0 6 255
4.52395e-40 4.52437e-40 -2.03306e-25 255 0 6 255
-2.03306e-25 -2.03306e-25 -2.03306e-25 255 0 6 255
-2.03306e-25 -2.03306e-25 -2.03306e-25 255 0 6 255
-2.03306e-25 -2.03306e-25 -2.03306e-25 255 0 6 255
-2.03306e-25 -2.03306e-25 -2.03306e-25 255 0 6 255
-2.03306e-25 -2.03306e-25 -2.03306e-25 255 0 6 255
-2.03306e-25 -2.03306e-25 -2.03306e-25 255 0 6 255
-2.03306e-25 -2.03306e-25 -2.03306e-25 255 0 6 255
-2.64004e-19 8.23679e-39 9.89734e-39 255 0 6 255
0 0 1.00282e-38 255 0 6 255
4.52561e-40 4.52499e-40 4.52137e-40 255 0 6 255
4.50559e-40 4.50574e-40 4.5059e-40 255 0 6 255
4.50602e-40 4.50616e-40 4.50627e-40 255 0 6 255
4.50652e-40 4.52107e-40 4.52067e-40 255 0 6 255
4.52025e-40 4.5193e-40 4.50691e-40 255 0 6 255
4.50677e-40 4.51888e-40 4.50705e-40 255 0 6 255
4.51854e-40 4.51812e-40 4.5177e-40 255 0 6 255
4.51731e-40 4.50985e-40 4.52603e-40 255 0 6 255
-2.64004e-19 8.23683e-39 1.0028e-38 255 0 6 255
0 0 1.00283e-38 255 0 6 255
4.52782e-40 4.5272e-40 4.52824e-40 255 0 6 255
4.50716e-40 4.5073e-40 4.50747e-40 255 0 6 255
4.50761e-40 4.50775e-40 4.50792e-40 255 0 6 255
4.50893e-40 4.51627e-40 4.51582e-40 255 0 6 255
4.51538e-40 4.51493e-40 4.51411e-40 255 0 6 255
4.50904e-40 4.51367e-40 4.51322e-40 255 0 6 255
4.51277e-40 4.51232e-40 4.51187e-40 255 0 6 255
4.51142e-40 4.5371e-40 4.5397e-40 255 0 6 255
-2.64004e-19 8.23688e-39 1.0028e-38 255 0 6 255
0 0 1.00284e-38 255 0 6 255
4.61815e-40 4.61857e-40 -2.03306e-25 255 0 6 255
-2.03306e-25 -2.03306e-25 -2.03306e-25 255 0 6 255
-2.03306e-25 0 -2.64004e-19 255 0 6 255
8.23692e-39 9.89734e-39 0 255 0 6 255
0 1.00285e-38 4.6198e-40 255 0 6 255
4.61918e-40 4.61756e-40 4.58073e-40 255 0 6 255
4.5809e-40 4.58104e-40 4.58121e-40 255 0 6 255
0 -2.64004e-19 8.23697e-39 255 0 6 255
1.00284e-38 0 0 255 0 6 255
3 0 1 2
3 2 1 3
3 0 1 4
3 4 5 1
3 1 5 3
3 7 5 3
3 4 5 6
3 5 6 7
3 2 6 7
3 2 7 3
3 2 4 6
3 0 2 4
