ply
format ascii 1.0
element vertex 96
property float x
property float y
property float z
property uchar red
property uchar green
property uchar blue
property uchar alpha
element face 12
property list uchar int vertex_indices
end_header
-100 -100 100 255 0 0 255
100 -100 100 255 0 6 255
-100 100 100 204 0 255 255
100 100 100 0 95 255 255
-100 -100 -100 0 255 114 255
100 -100 -100 185 255 0 255
-100 100 -100 255 23 0 255
100 100 -100 255 23 0 255
0 1.4013e-45 2.8026e-45 255 23 0 255
1.4013e-45 2.8026e-45 4.2039e-45 255 23 0 255
0 1.4013e-45 5.60519e-45 255 23 0 255
5.60519e-45 7.00649e-45 1.4013e-45 255 23 0 255
1.4013e-45 7.00649e-45 4.2039e-45 255 23 0 255
9.80909e-45 7.00649e-45 4.2039e-45 255 23 0 255
5.60519e-45 7.00649e-45 8.40779e-45 255 23 0 255
7.00649e-45 8.40779e-45 9.80909e-45 255 23 0 255
2.8026e-45 8.40779e-45 9.80909e-45 255 23 0 255
2.8026e-45 9.80909e-45 4.2039e-45 255 23 0 255
2.8026e-45 5.60519e-45 8.40779e-45 255 23 0 255
0 2.8026e-45 5.60519e-45 255 23 0 255
0 0 1.00273e-38 255 23 0 255
1.60348e-40 1.6039e-40 -7.05998e-26 255 23 0 255
-7.05998e-26 -7.05999e-26 -7.06014e-26 255 23 0 255
-7.0603e-26 -7.06031e-26 1.60011e-40 255 23 0 255
1.60087e-40 1.60154e-40 1.60222e-40 255 23 0 255
-7.06044e-26 1.60267e-40 1.6032e-40 255 23 0 255
1.60334e-40 -2.22394e-19 8.13511e-39 255 23 0 255
-2.20006e-19 0 0 255 23 0 255
1.00275e-38 2.265e-40 2.26514e-40 255 23 0 255
-7.05998e-26 -7.05998e-26 -7.05999e-26 255 23 0 255
-7.06014e-26 2.25917e-40 -7.06031e-26 255 23 0 255
-7.06031e-26 2.26027e-40 -7.06041e-26 255 23 0 255
-7.06043e-26 -7.06044e-26 2.25797e-40 255 23 0 255
2.25651e-40 2.2564e-40 -2.22394e-19 255 23 0 255
8.13529e-39 -2.20006e-19 0 255 23 0 255
0 1.00275e-38 2.5262e-40 255 23 0 255
2.52634e-40 -2.22394e-19 8.1354e-39 255 23 0 255
9.89734e-39 0 -2.22364e-19 255 23 0 255
9.23409e-39 0 1.00276e-38 255 23 0 255
2.8832e-40 2.88334e-40 -7.05998e-26 255 23 0 255
-7.05998e-26 -7.05999e-26 -7.06014e-26 255 23 0 255
2.87681e-40 -7.06031e-26 -7.06031e-26 255 23 0 255
2.87922e-40 -7.06041e-26 -7.06043e-26 255 23 0 255
-7.06044e-26 2.8779e-40 2.87911e-40 255 23 0 255
2.87535e-40 -2.22394e-19 8.13547e-39 255 23 0 255
-2.20006e-19 8.15056e-39 8.15354e-39 255 23 0 255
3.27713e-40 3.27682e-40 3.27713e-40 255 23 0 255
3.27682e-40 0 0 255 23 0 255
0 8.15127e-39 8.15289e-39 255 23 0 255
3.60134e-43 4.00771e-43 2.10195e-44 255 23 0 255
0 0 0 255 23 0 255
8.15305e-39 8.15323e-39 0 255 23 0 255
4.2039e-44 2.10195e-44 0 255 23 0 255
0 0 0 255 23 0 255
8.1534e-39 0 2.66247e-44 255 23 0 255
9.80909e-45 -3.60428e-24 -3.60397e-24 255 23 0 255
0 0 1.0028e-38 255 23 0 255
4.52418e-40 4.5246e-40 -8.39067e-26 255 23 0 255
-8.39067e-26 -8.39067e-26 -8.39067e-26 255 23 0 255
-8.39067e-26 -8.39067e-26 -8.39067e-26 255 23 0 255
-8.39067e-26 -8.39067e-26 -8.39067e-26 255 23 0 255
-8.39067e-26 -8.39067e-26 -8.39067e-26 255 23 0 255
-8.39067e-26 -8.39067e-26 -8.39067e-26 255 23 0 255
-8.39067e-26 -8.39067e-26 -8.39067e-26 255 23 0 255
-8.39067e-26 -8.39067e-26 -8.39067e-26 255 23 0 255
-2.22394e-19 8.23679e-39 9.89734e-39 255 23 0 255
0 0 1.00282e-38 255 23 0 255
4.52583e-40 4.52521e-40 4.5216e-40 255 23 0 255
4.50582e-40 4.50596e-40 4.50613e-40 255 23 0 255
4.50624e-40 4.50638e-40 4.50649e-40 255 23 0 255
4.50674e-40 4.52129e-40 4.5209e-40 255 23 0 255
4.52048e-40 4.51952e-40 4.50714e-40 255 23 0 255
4.507e-40 4.5191e-40 4.50728e-40 255 23 0 255
4.51877e-40 4.51835e-40 4.51793e-40 255 23 0 255
4.51753e-40 4.51008e-40 4.52625e-40 255 23 0 255
-2.22394e-19 8.23683e-39 1.0028e-38 255 23 0 255
0 0 1.00283e-38 255 23 0 255
4.52804e-40 4.52743e-40 4.52846e-40 255 23 0 255
4.50739e-40 4.50753e-40 4.5077e-40 255 23 0 255
4.50784e-40 4.50798e-40 4.50815e-40 255 23 0 255
4.50915e-40 4.5165e-40 4.51605e-40 255 23 0 255
4.5156e-40 4.51515e-40 4.51434e-40 255 23 0 255
4.50927e-40 4.51389e-40 4.51344e-40 255 23 0 255
4.51299e-40 4.51255e-40 4.5121e-40 255 23 0 255
4.51165e-40 4.53732e-40 4.53993e-40 255 23 0 255
-2.22394e-19 8.23688e-39 1.0028e-38 255 23 0 255
0 0 1.00284e-38 255 23 0 255
4.61837e-40 4.61879e-40 -8.39067e-26 255 23 0 255
-8.39067e-26 -8.39067e-26 -8.39067e-26 255 23 0 255
-8.39067e-26 0 -2.22394e-19 255 23 0 255
8.23692e-39 9.89734e-39 0 255 23 0 255
0 1.00285e-38 4.62002e-40 255 23 0 255
4.61941e-40 4.61778e-40 4.58096e-40 255 23 0 255
4.58112e-40 4.58127e-40 4.58143e-40 255 23 0 255
0 -2.22394e-19 8.23697e-39 255 23 0 255
1.00284e-38 0 0 255 23 0 255
3 0 1 2
3 1 2 3
3 0 1 4
3 4 5 1
3 1 5 3
3 7 5 3
3 4 5 6
3 5 6 7
3 2 6 7
3 2 7 3
3 2 4 6
3 0 2 4
