<?xml version="1.0" encoding="utf-8"?>
<!-- Generator: Adobe Illustrator 16.0.0, SVG Export Plug-In . SVG Version: 6.00 Build 0)  -->
<!DOCTYPE svg PUBLIC "-//W3C//DTD SVG 1.1//EN" "http://www.w3.org/Graphics/SVG/1.1/DTD/svg11.dtd">
<svg version="1.1" id="Calque_1" xmlns="http://www.w3.org/2000/svg" xmlns:xlink="http://www.w3.org/1999/xlink" x="0px" y="0px"
	 width="3231.5px" height="2721.26px" viewBox="0 0 3231.5 2721.26" enable-background="new 0 0 3231.5 2721.26"
	 xml:space="preserve">
<polygon fill="#3C3C3B" points="-417.981,-190.189 -238.819,-280.082 -96.489,-253.238 -0.978,-280.082 53.954,-248.243 
	273.068,-244.499 178.182,-193.936 148.219,-139.624 215.638,-91.557 286.178,-185.818 383.562,-157.104 445.362,-80.319 
	341.114,-64.092 337.365,-12.901 188.17,65.755 182.553,120.065 113.885,158.77 90.162,231.807 57.077,172.502 -49.671,187.484 
	-82.131,276.129 -34.063,297.979 -11.589,266.766 24.615,269.886 13.691,319.203 46.465,327.943 48.961,359.778 -5.348,364.148 
	-182.013,287.364 -155.169,264.267 -212.601,168.758 -216.346,246.164 -261.917,158.146 -260.668,38.913 -213.226,-27.257 
	-224.461,-115.904 -276.9,-159.6 -427.968,-119.647 -370.538,-155.229 "/>
</svg>
