<?xml version="1.0" encoding="utf-8"?>
<!-- Generator: Adobe Illustrator 16.0.0, SVG Export Plug-In . SVG Version: 6.00 Build 0)  -->
<!DOCTYPE svg PUBLIC "-//W3C//DTD SVG 1.1//EN" "http://www.w3.org/Graphics/SVG/1.1/DTD/svg11.dtd">
<svg version="1.1" id="Calque_1" xmlns="http://www.w3.org/2000/svg" xmlns:xlink="http://www.w3.org/1999/xlink" x="0px" y="0px"
	 width="144px" height="144px" viewBox="0 0 144 144" enable-background="new 0 0 144 144" xml:space="preserve">
<g>
	<polygon fill="#706F6F" points="119.396,142.65 119.484,134.225 136.062,111.1 132.095,79.771 113.443,64.23 63.712,77.384 
		81.534,66.34 65.038,54.185 126.686,23.254 142.65,26.265 142.65,142.65 	"/>
	<path d="M126.758,23.777l15.393,2.902V142.15h-22.248l0.082-7.765l16.371-22.837l0.229-0.318l-0.049-0.391l-3.92-30.938
		l-0.05-0.392l-0.303-0.252L113.963,64.01l-0.396-0.331l-0.5,0.132L66.824,76.044l14.345-8.889l1.257-0.778L81.236,65.5
		L65.991,54.267L126.758,23.777 M126.611,22.731L64.084,54.104l16.559,12.201L60.6,78.725l52.723-13.944l18.301,15.25l3.92,30.938
		l-16.558,23.095l-0.096,9.09h24.26V25.85L126.611,22.731L126.611,22.731z"/>
</g>
</svg>
